<?xml version="1.0" standalone="no"?>
<!DOCTYPE svg PUBLIC "-//W3C//DTD SVG 20010904//EN"
 "http://www.w3.org/TR/2001/REC-SVG-20010904/DTD/svg10.dtd">
<svg version="1.0" xmlns="http://www.w3.org/2000/svg"
 width="400.000000pt" height="400.000000pt" viewBox="0 0 400.000000 400.000000"
 preserveAspectRatio="xMidYMid meet">
<metadata>
Created by potrace 1.14, written by Peter Selinger 2001-2017
</metadata>
<g transform="translate(0.000000,400.000000) scale(0.100000,-0.100000)"
fill="#000000" stroke="none">
<path d="M0 3981 c0 -12 5 -21 11 -21 5 0 7 -6 3 -12 -11 -18 -13 -79 -3 -72
5 3 9 -2 9 -11 0 -9 -4 -13 -10 -10 -6 4 -9 -15 -9 -49 1 -34 6 -56 13 -56 6
0 6 -4 -2 -9 -11 -7 -11 -9 2 -14 13 -5 16 0 16 25 0 40 11 30 12 -12 1 -17 4
-26 8 -19 4 6 5 20 2 32 -4 16 -2 19 12 14 10 -4 19 -1 23 9 5 13 7 13 14 2 6
-9 8 -6 6 9 0 12 -4 20 -8 17 -9 -5 -49 35 -50 50 0 6 -4 2 -9 -9 -6 -14 -8
-2 -8 40 1 52 2 55 8 25 4 -19 8 -26 9 -14 0 11 7 26 14 33 9 11 9 13 0 7 -9
-5 -13 0 -13 14 0 12 4 19 9 16 5 -4 11 -1 13 5 3 8 9 6 20 -5 19 -18 33 -21
22 -4 -5 7 -3 8 5 3 8 -4 10 -16 6 -29 -15 -50 -13 -67 6 -61 11 3 28 8 39 11
20 5 29 34 10 34 -6 0 -9 -5 -8 -12 2 -6 -5 -14 -14 -16 -13 -2 -18 3 -17 20
0 22 1 22 9 3 9 -20 10 -19 14 23 3 27 22 49 33 38 5 -4 0 -13 -10 -20 -22
-17 -22 -24 1 -22 9 0 16 -4 15 -11 -1 -6 4 -13 11 -16 10 -4 12 0 9 14 -3 10
-10 19 -15 19 -7 0 -7 5 -1 13 5 6 9 19 9 27 -1 12 -21 16 -108 18 -104 4
-108 3 -108 -17z m154 -12 c-3 -5 -10 -7 -15 -3 -5 3 -7 10 -3 15 3 5 10 7 15
3 5 -3 7 -10 3 -15z m-74 -185 c0 -8 -5 -12 -10 -9 -6 4 -8 11 -5 16 9 14 15
11 15 -7z"/>
<path d="M330 3991 c0 -6 5 -13 10 -16 6 -3 10 -2 10 3 0 6 8 8 19 5 10 -3 22
0 25 6 5 7 -5 11 -28 11 -20 0 -36 -4 -36 -9z"/>
<path d="M422 3982 c10 -11 8 -14 -7 -12 -34 4 -55 0 -55 -9 0 -9 60 -4 69 5
11 11 8 31 -5 31 -11 0 -11 -3 -2 -15z"/>
<path d="M468 3993 c7 -3 16 -2 19 1 4 3 -2 6 -13 5 -11 0 -14 -3 -6 -6z"/>
<path d="M2490 3985 c0 -8 2 -15 4 -15 2 0 6 7 10 15 3 8 1 15 -4 15 -6 0 -10
-7 -10 -15z"/>
<path d="M2760 3981 c0 -10 -6 -22 -12 -24 -10 -4 -10 -6 -1 -6 6 -1 15 4 18
9 9 14 23 12 22 -2 -1 -34 4 -48 18 -48 8 0 15 -5 15 -11 0 -6 -9 -9 -20 -6
-13 3 -20 0 -20 -9 0 -10 6 -11 24 -4 26 10 36 5 36 -18 0 -11 -3 -12 -13 -3
-10 8 -19 7 -33 -4 -18 -13 -18 -14 4 -8 18 4 22 1 22 -16 0 -12 -6 -21 -16
-21 -8 0 -12 -5 -8 -11 3 -6 17 -9 30 -6 13 2 24 0 24 -4 0 -5 -4 -9 -10 -9
-5 0 -10 -5 -10 -11 0 -6 7 -8 16 -5 14 5 15 4 4 -9 -8 -10 -9 -15 -1 -15 6 0
11 -6 11 -14 0 -14 29 -31 37 -22 3 2 -4 13 -15 24 -13 13 -19 32 -18 54 1 30
-2 34 -19 31 -19 -4 -19 -4 -3 10 10 8 14 18 10 23 -4 4 0 3 8 -3 9 -6 23 -7
35 -2 17 6 17 8 3 8 -24 1 -73 78 -73 115 0 28 -4 31 -32 34 -27 3 -33 0 -33
-17z"/>
<path d="M2983 3986 c2 -5 9 -12 17 -14 8 -3 10 0 5 8 -6 10 -4 12 8 7 10 -3
17 -2 17 3 0 5 -11 9 -25 8 -14 -1 -24 -7 -22 -12z"/>
<path d="M3033 3975 c-12 -14 -18 -27 -13 -30 5 -3 15 4 23 15 7 11 17 17 21
13 4 -4 4 0 0 10 -8 21 -5 22 -31 -8z"/>
<path d="M3078 3959 c3 -29 1 -40 -7 -35 -7 5 -8 1 -4 -10 4 -11 2 -15 -4 -11
-14 9 -37 -20 -52 -62 -13 -41 -14 -44 -2 -36 6 3 15 -4 21 -15 13 -24 49 -26
76 -4 19 15 19 15 -2 5 -24 -11 -65 5 -71 29 -3 9 -1 11 4 5 12 -15 52 -18 69
-5 23 20 16 30 -18 31 l-33 2 30 4 c33 5 68 31 59 44 -3 5 0 9 6 9 6 0 8 15 4
43 -6 41 -6 42 11 19 22 -30 12 -75 -22 -100 -25 -18 -25 -19 -5 -24 12 -3 21
-3 20 1 -2 17 3 22 15 13 8 -7 18 -6 31 4 11 8 16 14 10 14 -5 0 1 8 13 18
l23 17 -24 1 c-17 1 -27 -6 -35 -23 -15 -33 -25 -24 -11 11 9 24 15 27 47 24
25 -2 37 -8 35 -16 -1 -8 2 -11 7 -8 13 8 24 -11 15 -25 -4 -8 -9 -8 -17 0 -6
6 -20 10 -31 10 -18 -1 -19 -2 -3 -6 18 -5 18 -5 0 -18 -16 -12 -14 -13 12 -8
17 3 36 10 43 16 11 9 13 7 10 -9 -2 -12 2 -18 11 -16 9 2 11 -3 7 -13 -3 -9
-2 -13 4 -10 6 4 8 -6 6 -24 -3 -24 0 -29 16 -26 10 2 16 0 13 -6 -4 -5 -1 -9
6 -9 7 0 9 -3 6 -6 -10 -10 12 -44 27 -44 19 0 29 -32 14 -42 -7 -4 -8 -8 -2
-8 13 0 35 -88 23 -92 -5 -2 -10 -14 -13 -28 -2 -14 -9 -24 -15 -22 -6 1 -11
-2 -11 -8 0 -5 8 -10 18 -10 14 0 15 -2 2 -10 -11 -7 -11 -10 -2 -10 7 0 10
-4 7 -10 -3 -5 -1 -10 6 -10 8 0 8 -4 -1 -15 -10 -12 -8 -16 11 -24 13 -5 20
-10 16 -10 -5 -1 -2 -8 6 -16 9 -8 17 -20 19 -27 6 -16 28 -1 28 19 0 9 -3 13
-7 10 -3 -4 -12 2 -20 12 -20 29 -1 71 31 71 30 0 44 -18 25 -32 -11 -7 -11
-11 -1 -15 6 -2 10 -9 6 -14 -3 -5 0 -9 5 -9 6 0 11 5 11 11 0 7 9 9 21 6 14
-4 19 -2 15 8 -6 17 24 29 38 15 8 -8 3 -18 -17 -36 -16 -13 -33 -22 -38 -19
-5 4 -9 2 -9 -4 0 -20 17 -20 38 -1 14 13 23 16 28 9 3 -6 0 -15 -7 -20 -9 -6
-10 -9 -2 -9 6 0 15 5 18 10 3 6 11 10 16 10 6 0 8 -4 5 -8 -3 -5 1 -9 9 -9
10 0 12 4 5 12 -6 7 -5 16 2 23 15 15 31 16 22 0 -4 -7 -3 -8 4 -4 6 4 9 13 5
21 -3 9 1 15 9 15 8 0 23 9 34 21 10 11 14 20 9 19 -50 -10 -67 10 -41 45 14
19 15 19 27 -7 6 -15 16 -25 21 -22 11 7 49 14 96 17 25 2 32 -1 32 -15 0 -10
-4 -18 -10 -18 -5 0 -10 -7 -10 -16 0 -8 -4 -12 -10 -9 -5 3 -10 -1 -10 -9 0
-9 -5 -16 -11 -16 -5 0 -7 5 -3 12 4 7 3 8 -5 4 -6 -4 -9 -11 -6 -16 3 -5 1
-11 -5 -15 -12 -8 3 -23 46 -46 28 -15 30 -15 31 3 1 10 -2 18 -8 18 -13 0
-11 37 2 46 7 4 10 1 7 -7 -8 -21 10 -49 27 -43 8 4 15 13 15 22 0 30 18 -2
21 -38 3 -32 14 -49 31 -50 4 0 7 153 7 341 l1 340 -63 -2 c-34 -1 -68 -7 -76
-13 -11 -8 -13 -8 -7 2 5 9 -17 12 -98 12 -97 0 -106 -2 -117 -21 -7 -15 -8
-19 0 -15 7 5 9 1 5 -8 -3 -9 -11 -16 -18 -16 -6 0 -4 -5 4 -10 12 -8 12 -10
-5 -10 -11 0 -31 12 -44 25 -13 14 -30 25 -37 25 -8 0 -26 7 -39 16 -16 11
-25 12 -25 5 0 -6 7 -14 15 -17 17 -7 20 -39 6 -49 -12 -7 -41 34 -41 57 0 10
-7 18 -15 18 -14 0 -13 -4 1 -32 10 -18 30 -49 46 -69 23 -28 34 -35 53 -31
16 3 25 0 25 -8 0 -9 9 -10 33 -5 17 4 39 7 47 7 8 0 27 12 43 26 15 14 27 21
27 15 0 -18 -88 -92 -117 -98 -49 -11 -61 -17 -40 -22 44 -11 142 52 175 112
7 11 12 14 12 6 0 -7 -15 -32 -32 -54 -18 -23 -33 -44 -33 -48 0 -13 -16 -24
-33 -24 -9 0 -17 -6 -17 -13 0 -7 -6 -17 -14 -21 -8 -5 -9 -11 -3 -15 5 -3 31
13 58 37 l49 42 -29 -40 c-16 -22 -39 -48 -50 -58 -35 -30 -98 -57 -110 -48
-6 4 -23 11 -37 14 -62 15 -229 229 -229 293 0 12 -7 24 -15 28 -19 7 -20 -24
-2 -43 10 -11 7 -12 -13 -6 -14 5 -30 8 -37 8 -7 0 -10 4 -8 8 3 4 2 14 -1 23
-5 12 -20 16 -63 16 l-57 0 4 -41z m42 -31 c17 -32 17 -37 3 -42 -8 -3 -20 -3
-25 1 -7 3 -8 1 -4 -5 4 -7 1 -12 -9 -12 -10 0 -15 7 -13 18 2 9 12 16 21 16
12 -1 16 3 13 15 -9 28 -16 77 -10 61 3 -8 14 -31 24 -52z m606 10 c-18 -26
-22 -17 -5 14 6 11 13 17 16 15 3 -3 -2 -16 -11 -29z m-581 -16 c-8 -8 -25 10
-25 26 0 13 2 13 14 -4 8 -10 13 -21 11 -22z m675 35 c0 -2 -15 -16 -32 -33
-27 -24 -29 -25 -13 -4 24 30 45 47 45 37z m50 -25 c0 -4 -6 -14 -12 -22 -8
-8 -1 -6 15 4 33 20 62 14 53 -10 -4 -12 -2 -15 9 -10 8 3 15 1 15 -4 0 -6 -4
-10 -10 -10 -5 0 -10 -6 -10 -14 0 -8 -7 -17 -16 -20 -13 -5 -14 -3 -6 6 8 10
4 13 -19 13 -15 0 -28 4 -28 10 0 5 -7 12 -16 15 -16 6 -16 8 -2 22 9 9 13 18
10 22 -4 3 -1 6 5 6 7 0 12 -4 12 -8z m-816 -47 c-4 -8 -11 -15 -16 -15 -6 0
-5 6 2 15 7 8 14 15 16 15 2 0 1 -7 -2 -15z m491 -3 c-3 -3 -11 0 -18 7 -9 10
-8 11 6 5 10 -3 15 -9 12 -12z m268 -9 c-7 -3 -13 -9 -13 -15 0 -6 6 -8 13 -5
8 3 14 -1 14 -8 0 -11 -5 -12 -21 -2 -12 6 -28 10 -36 9 -10 -1 -11 1 -2 4 6
3 10 9 7 14 -2 4 8 7 23 7 15 0 21 -2 15 -4z m-703 -37 c0 -2 -7 -7 -16 -10
-8 -3 -12 -2 -9 4 6 10 25 14 25 6z m670 -31 c0 -18 -36 -39 -45 -25 -3 5 4
10 15 10 16 0 20 5 16 15 -3 8 -1 15 4 15 6 0 10 -7 10 -15z m83 -62 c-7 -2
-19 -2 -25 0 -7 3 -2 5 12 5 14 0 19 -2 13 -5z m-73 -43 c-6 -11 -13 -20 -16
-20 -2 0 0 9 6 20 6 11 13 20 16 20 2 0 0 -9 -6 -20z m155 9 c11 -16 1 -19
-13 -3 -7 8 -8 14 -3 14 5 0 13 -5 16 -11z m-128 -71 c-8 -21 -16 -41 -20 -44
-13 -13 -7 -22 26 -43 17 -11 26 -21 19 -21 -7 0 -21 7 -30 16 -14 15 -17 15
-27 0 -18 -24 -31 -19 -29 12 2 41 3 42 20 35 13 -5 14 0 9 29 -5 25 -2 38 9
47 9 7 13 18 9 25 -3 6 1 4 10 -4 14 -13 15 -20 4 -52z m59 32 c19 0 18 -19
-2 -27 -22 -8 -34 8 -27 37 6 19 8 21 11 8 2 -10 10 -18 18 -18z m49 -1 c4
-12 2 -26 -3 -31 -8 -8 -9 -4 -5 11 3 12 1 21 -6 21 -6 0 -11 5 -11 10 0 18
19 10 25 -11z m-462 -63 c0 -14 4 -23 8 -20 5 3 8 0 7 -8 -2 -7 4 -12 14 -10
9 1 19 -2 23 -8 4 -6 -1 -7 -12 -3 -16 6 -17 5 -3 -11 8 -10 23 -22 35 -26 14
-6 16 -9 4 -9 -22 -1 -92 68 -85 84 3 8 -2 19 -9 25 -8 7 -12 17 -9 22 10 16
27 -7 27 -36z m277 -16 c-12 -23 -24 -39 -27 -36 -3 3 -19 -6 -35 -19 -16 -14
-37 -25 -46 -25 -10 0 -2 8 16 17 18 9 50 37 70 63 20 26 38 46 40 45 2 -2 -6
-22 -18 -45z m-215 20 c-3 -5 -14 -10 -23 -9 -14 0 -13 2 3 9 27 11 27 11 20
0z m40 -24 c-8 -12 -13 -25 -10 -28 3 -3 0 -10 -8 -16 -10 -9 -13 -4 -14 23
-1 24 3 35 13 35 8 0 14 5 14 11 0 5 4 7 10 4 6 -4 4 -15 -5 -29z m347 27 c-6
-2 -10 -9 -7 -13 3 -5 1 -11 -5 -15 -5 -3 -10 0 -10 8 0 17 10 27 24 26 6 0 5
-3 -2 -6z m-62 -23 c0 -13 -7 -20 -20 -20 -22 0 -28 25 -7 33 22 10 27 7 27
-13z m50 -51 c0 -5 -10 -8 -22 -8 -18 1 -19 2 -5 6 15 4 16 7 5 21 -12 15 -11
16 5 3 9 -7 17 -17 17 -22z m53 6 c-3 -9 -8 -14 -10 -11 -3 3 -2 9 2 15 9 16
15 13 8 -4z m-303 0 c0 -10 -45 -23 -55 -17 -5 3 1 9 15 13 33 9 40 10 40 4z
m297 -57 c-3 -7 -5 -2 -5 12 0 14 2 19 5 13 2 -7 2 -19 0 -25z m-344 15 c-7
-2 -21 -2 -30 0 -10 3 -4 5 12 5 17 0 24 -2 18 -5z m84 -60 c-3 -3 -11 -2 -17
2 -8 5 -7 11 2 22 12 15 13 14 16 -1 2 -10 1 -20 -1 -23z m240 5 c-3 -8 -6 -5
-6 6 -1 11 2 17 5 13 3 -3 4 -12 1 -19z m-482 -7 c-3 -6 -11 -11 -16 -11 -5 0
-4 6 3 14 14 16 24 13 13 -3z m212 -23 c-17 -10 -26 0 -20 22 5 19 6 19 18 3
10 -13 10 -20 2 -25z"/>
<path d="M3801 3654 c0 -11 3 -14 6 -6 3 7 2 16 -1 19 -3 4 -6 -2 -5 -13z"/>
<path d="M1815 3971 c-20 -19 -207 -111 -226 -111 -10 0 -33 9 -51 20 -41 25
-59 25 -89 1 l-24 -19 26 -36 c23 -33 25 -41 16 -75 -11 -40 -23 -43 -57 -16
-8 7 -20 15 -27 19 -16 9 -76 -53 -69 -71 3 -8 -1 -21 -9 -29 -8 -9 -15 -26
-15 -40 0 -24 -14 -32 -25 -14 -11 18 -53 11 -60 -10 -8 -25 -50 -37 -71 -19
-11 9 -14 23 -10 47 6 39 -7 72 -29 72 -8 0 -24 -20 -36 -45 -12 -25 -25 -48
-30 -51 -5 -3 -9 -14 -9 -25 0 -10 -7 -19 -15 -19 -8 0 -19 -10 -26 -21 -13
-26 3 -92 29 -122 15 -17 15 -17 -13 -7 -16 6 -41 10 -55 8 -14 -1 -30 1 -37
5 -6 4 -14 3 -18 -3 -9 -15 -25 -12 -25 4 0 8 -11 16 -23 20 -20 5 -26 16 -37
76 -17 89 -29 101 -73 67 -33 -25 -57 -79 -57 -128 0 -17 -12 -31 -43 -50 -36
-23 -54 -27 -122 -28 -91 0 -119 -14 -148 -75 l-18 -38 35 -60 c20 -33 36 -72
36 -87 0 -33 -53 -89 -90 -94 -34 -5 -30 -19 14 -40 39 -19 44 -28 21 -47 -21
-17 -19 -46 6 -80 20 -26 21 -34 11 -82 -9 -46 -8 -58 9 -95 25 -52 72 -83
128 -83 48 0 81 -14 81 -34 0 -7 -9 -25 -20 -39 -27 -35 -26 -65 5 -79 51 -23
165 37 165 87 0 39 95 129 163 154 61 22 122 27 132 11 3 -5 24 -10 46 -10 44
0 68 -10 145 -62 28 -19 81 -49 117 -68 72 -36 81 -49 78 -118 0 -23 8 -71 20
-107 l21 -64 -23 -40 c-19 -35 -27 -40 -62 -43 -54 -4 -57 -21 -7 -41 l41 -16
26 30 c32 35 47 36 85 4 16 -14 35 -25 42 -25 21 0 64 -74 68 -116 l3 -39 54
0 c46 -1 56 -4 75 -28 58 -75 115 -131 156 -152 25 -13 73 -53 108 -88 84 -87
107 -97 208 -90 l81 6 40 -37 c22 -20 43 -48 46 -64 3 -15 16 -31 29 -37 27
-12 31 -41 6 -39 -10 1 -18 -4 -18 -12 0 -32 90 -46 126 -19 28 21 71 19 84
-4 5 -11 7 -39 4 -64 l-6 -45 60 -41 c34 -22 68 -41 76 -41 9 0 16 -4 16 -9 0
-12 48 -30 90 -33 22 -2 39 -10 47 -23 25 -41 46 -91 50 -115 4 -22 29 -78 69
-150 21 -38 17 -56 -17 -70 -38 -16 -49 -44 -49 -128 l0 -67 -33 -1 c-19 0
-51 -9 -73 -21 -37 -19 -48 -20 -84 -6 -26 10 -54 2 -82 -24 -16 -15 -31 -22
-39 -18 -7 5 -10 4 -6 -2 8 -13 -83 -37 -110 -29 -10 3 -40 6 -68 8 -42 2 -55
8 -93 44 -24 23 -55 44 -70 47 -41 8 -107 -7 -138 -32 -21 -16 -37 -21 -59
-17 -35 7 -41 3 -76 -44 -35 -48 -39 -63 -28 -102 17 -64 58 -87 189 -103 38
-5 67 -20 111 -60 47 -42 136 -75 202 -75 48 0 56 -4 95 -43 23 -23 56 -58 72
-78 28 -35 32 -36 68 -28 20 4 49 10 64 14 21 4 36 21 63 70 35 61 35 65 21
94 -9 16 -21 31 -27 33 -6 2 -12 16 -12 31 -1 15 -5 27 -9 27 -8 0 -4 47 7 95
3 17 20 46 36 65 l29 35 25 -32 c27 -34 81 -58 109 -47 14 5 38 37 41 54 6 38
34 85 64 109 20 16 49 52 64 79 23 42 25 55 17 77 -16 42 0 60 57 60 l48 0 1
60 c1 33 -3 73 -9 90 -14 42 -64 94 -113 116 -23 10 -47 25 -53 33 -16 19 -10
87 7 94 11 4 11 6 0 13 -8 6 -9 9 -1 9 6 0 19 20 29 45 9 25 21 45 26 45 5 0
8 6 5 13 -4 11 28 47 43 47 13 0 80 -57 74 -63 -3 -3 2 -4 13 -3 10 2 24 -1
30 -6 7 -6 24 -8 38 -6 13 3 22 1 19 -3 -3 -5 5 -11 18 -14 14 -4 32 -24 46
-53 26 -53 75 -92 115 -92 38 0 49 22 50 100 1 84 -88 207 -183 254 -25 13
-78 42 -117 65 -40 22 -95 50 -123 61 -27 11 -82 36 -122 55 -139 69 -169 109
-105 141 17 9 35 22 39 28 12 18 9 51 -6 72 -13 17 -25 19 -104 16 -76 -2
-103 2 -169 24 -88 29 -107 38 -132 62 -122 114 -197 195 -218 236 -14 27 -36
93 -49 147 -35 141 -55 180 -116 226 -80 61 -106 75 -120 67 -7 -4 -10 -4 -6
0 3 4 -21 31 -55 60 -34 29 -72 71 -85 93 -44 79 -39 194 9 206 40 11 13 87
-47 133 -29 22 -34 33 -32 58 3 28 7 31 41 34 36 3 38 5 33 28 -6 23 -4 24 41
24 52 0 62 5 79 35 15 28 72 54 118 55 22 0 68 -7 104 -16 35 -9 66 -14 68
-11 9 9 -16 48 -27 42 -5 -4 -9 2 -9 11 0 10 -3 14 -6 11 -4 -4 -17 5 -29 19
-18 20 -21 33 -15 53 10 36 -4 71 -42 102 l-31 26 21 19 c28 24 28 50 0 68
-29 18 -178 33 -178 18 0 -6 5 -14 11 -17 7 -5 6 -14 -4 -28 -9 -14 -11 -32
-7 -48 11 -40 -3 -54 -26 -27 -15 18 -15 20 -1 9 12 -9 17 -10 17 -2 0 6 -7
14 -15 17 -8 4 -15 10 -15 16 0 5 4 7 9 4 5 -3 9 0 8 7 0 6 1 21 2 32 l2 20 9
-20 c9 -20 9 -20 9 0 1 25 -26 49 -59 53 -42 4 -50 10 -70 57 -11 25 -22 45
-25 45 -3 0 -17 -7 -30 -16 -30 -19 -72 -12 -77 14 -2 9 0 31 6 49 12 43 -13
79 -39 54z m-2 -201 c19 -16 37 -27 40 -24 3 3 19 -1 35 -10 36 -18 114 -37
107 -26 -3 5 6 7 20 5 21 -2 25 1 20 19 -2 11 -2 15 1 9 3 -7 14 -13 25 -13
10 0 19 -5 19 -11 0 -5 -4 -8 -9 -4 -5 3 -12 1 -16 -5 -3 -5 -15 -10 -26 -10
-11 0 -18 -4 -14 -9 3 -5 -5 -12 -17 -14 -20 -4 -20 -4 4 -6 25 -1 52 -21 29
-21 -6 0 -8 -13 -5 -32 6 -33 6 -33 -10 -10 -19 25 -62 31 -52 7 6 -16 -25
-38 -47 -33 -24 5 -65 -32 -62 -57 1 -14 -2 -22 -6 -19 -12 7 -11 -13 1 -37
17 -30 2 -40 -23 -16 -17 16 -22 31 -19 53 2 20 -5 44 -17 65 -12 19 -21 30
-21 24 0 -9 -44 36 -58 61 -4 6 -18 15 -32 18 -14 4 -20 4 -14 -1 17 -12 32
-45 33 -73 1 -14 3 -41 4 -60 2 -42 11 -49 57 -51 24 -1 28 -3 12 -6 -12 -2
-27 -14 -34 -26 -6 -12 -18 -28 -27 -35 -9 -8 -10 -10 -2 -6 8 4 12 2 10 -5
-3 -7 -9 -12 -14 -11 -5 1 -13 -7 -17 -17 -6 -13 -7 -11 -5 10 3 15 1 27 -3
27 -3 0 -6 10 -6 21 2 37 -22 32 -39 -7 -20 -49 -19 -76 5 -107 24 -30 25 -37
7 -37 -8 0 -19 10 -25 23 l-11 22 -1 -25 c-1 -14 -1 -33 0 -44 1 -10 -3 -16
-8 -12 -5 3 -14 -6 -21 -20 -14 -32 -14 -37 2 -28 6 4 9 4 5 0 -3 -4 -9 -6
-11 -4 -3 2 -17 -8 -31 -21 -24 -22 -28 -23 -25 -5 0 4 -5 11 -13 15 -9 6 -7
9 10 9 12 0 22 4 22 9 0 5 3 17 6 25 5 13 2 15 -12 9 -18 -6 -18 -6 -1 14 17
19 16 20 -13 18 -19 -1 -30 3 -30 12 0 7 -7 13 -16 13 -9 0 -12 5 -8 12 4 7 3
8 -4 4 -16 -10 -15 -24 3 -28 9 -2 12 -8 6 -16 -6 -10 -12 -5 -22 16 -8 16
-18 30 -24 32 -27 7 -35 14 -51 37 l-16 26 23 -17 c13 -9 35 -16 49 -15 l25 1
-25 8 c-21 7 -22 8 -5 10 11 1 15 4 7 7 -6 2 -9 9 -6 14 3 6 0 16 -6 24 -10
12 -9 15 4 15 10 0 14 5 11 10 -3 6 0 10 7 10 8 0 20 16 27 35 7 19 18 35 25
35 7 0 21 9 31 20 10 11 23 20 30 20 15 0 57 57 70 95 7 20 18 31 33 33 20 3
27 13 23 35 -1 5 3 6 8 3 5 -4 12 3 16 14 6 20 50 60 66 60 5 0 24 -13 42 -30z
m237 -90 c0 -5 -5 -10 -11 -10 -5 0 -7 5 -4 10 3 6 8 10 11 10 2 0 4 -4 4 -10z
m110 -30 c0 -5 -2 -10 -4 -10 -3 0 -8 5 -11 10 -3 6 -1 10 4 10 6 0 11 -4 11
-10z m-703 -106 c-3 -3 -12 -4 -19 -1 -8 3 -5 6 6 6 11 1 17 -2 13 -5z m-224
-76 c8 -5 6 -9 -6 -14 -24 -9 -25 -6 -18 46 5 44 6 44 9 10 2 -19 9 -38 15
-42z m733 22 c0 -21 -12 -25 -35 -11 -11 7 -10 11 5 20 26 15 30 14 30 -9z
m-649 -45 c6 -14 7 -27 2 -31 -5 -3 -9 -18 -9 -35 0 -21 -5 -29 -18 -29 -33 0
-56 -36 -27 -42 14 -3 14 -6 -1 -27 -12 -16 -18 -49 -20 -102 -2 -67 0 -79 13
-79 9 0 14 3 10 6 -3 3 3 28 13 54 10 26 16 51 13 54 -4 3 3 6 15 6 19 0 23
-4 22 -25 0 -3 7 -19 16 -36 16 -31 11 -56 -7 -29 -6 10 -8 -3 -6 -40 2 -55 2
-55 -26 -53 -24 2 -28 -1 -22 -15 4 -9 10 -27 12 -39 3 -12 10 -20 17 -17 6 2
19 -10 29 -27 10 -18 20 -29 23 -26 4 3 -4 20 -16 36 -28 41 -15 63 15 25 27
-34 37 -29 38 22 1 20 3 32 5 25 2 -6 8 -9 13 -6 5 3 17 1 28 -4 14 -8 22 -7
31 4 10 12 9 15 -8 15 -24 0 -48 25 -32 35 20 12 10 27 -15 21 -18 -5 -25 -2
-25 8 0 8 -11 27 -25 42 -50 53 -26 60 35 9 23 -19 50 -35 60 -35 18 0 34 -25
25 -40 -3 -4 3 -14 12 -21 15 -13 16 -11 10 11 -6 24 -5 24 9 5 8 -11 19 -20
24 -20 5 0 15 -7 22 -15 11 -12 11 -12 -6 0 -17 13 -19 13 -14 0 6 -17 -9 -66
-18 -57 -3 3 -1 14 5 25 8 15 7 21 -2 25 -8 3 -13 -2 -13 -12 1 -9 -3 -16 -9
-16 -5 0 -9 6 -9 13 2 9 -2 10 -11 2 -11 -9 -7 -23 21 -71 19 -34 34 -64 34
-67 0 -11 43 -52 54 -52 6 0 22 9 36 20 21 16 22 21 10 29 -8 5 -17 8 -21 5
-4 -2 -9 1 -11 6 -2 6 -10 12 -18 14 -40 6 -61 19 -56 32 3 7 -3 18 -12 24
-16 11 -16 11 0 6 9 -3 19 0 22 7 5 9 7 9 12 -1 3 -6 10 -10 15 -7 5 3 22 -4
38 -16 20 -15 37 -20 55 -15 13 3 28 2 31 -4 3 -5 15 -10 26 -10 17 0 19 -4
13 -22 -6 -20 -5 -21 10 -9 9 8 19 11 23 7 17 -17 -25 -23 -67 -10 -24 7 -24
7 -7 -11 14 -13 17 -27 13 -57 -6 -45 19 -109 40 -101 9 3 17 -10 25 -42 9
-34 22 -54 50 -77 21 -17 36 -34 34 -39 -3 -4 1 -10 7 -13 7 -3 4 -4 -7 -3
-12 2 -19 9 -17 19 2 12 -3 15 -18 11 -28 -7 -25 -19 9 -34 16 -7 27 -17 25
-21 -3 -4 -1 -8 5 -8 6 0 15 9 21 20 6 11 16 20 23 19 9 0 9 -2 0 -6 -7 -2
-13 -13 -13 -24 0 -10 6 -19 13 -19 6 0 23 -3 37 -6 20 -6 23 -4 13 6 -10 10
-7 19 12 42 15 17 22 35 18 45 -6 14 -8 14 -21 -5 -18 -28 -44 -28 -68 -1 -19
22 -19 22 3 10 33 -17 40 -14 47 22 6 31 56 77 83 77 6 0 13 6 16 13 3 9 9 8
21 -4 13 -12 15 -21 7 -42 -6 -15 -7 -27 -1 -27 5 0 12 9 15 20 6 20 25 28 25
11 0 -5 9 -11 19 -14 14 -3 18 -1 14 9 -9 23 13 16 25 -8 l11 -23 0 23 c1 15
6 22 14 19 6 -2 11 -10 9 -17 -2 -8 3 -10 14 -6 12 5 15 2 10 -9 -3 -9 -2 -13
4 -10 6 3 10 1 10 -4 0 -6 5 -11 11 -11 5 0 7 6 3 13 -6 9 -5 9 7 0 9 -7 15
-23 13 -35 -1 -13 -3 -30 -3 -37 -1 -11 -4 -12 -12 -4 -9 9 -15 8 -26 -3 -12
-12 -12 -17 3 -36 9 -13 14 -16 12 -8 -4 10 2 15 18 16 19 2 24 -3 24 -23 0
-13 -4 -22 -10 -18 -5 3 -6 13 -3 22 4 11 3 14 -5 9 -14 -8 -16 -42 -3 -50 5
-3 11 -16 14 -28 6 -19 3 -19 -18 7 -13 17 -24 24 -25 17 0 -7 -4 -11 -9 -8
-5 3 -11 -3 -14 -13 -2 -11 -14 -24 -25 -30 -16 -8 -21 -7 -26 5 -5 13 -2 15
13 11 20 -5 31 10 31 41 -1 15 -2 15 -11 0 -5 -10 -17 -18 -26 -18 -11 0 -8 6
11 21 20 16 26 29 25 57 0 30 -2 33 -9 17 -4 -12 -15 -27 -24 -34 -13 -11 -14
-16 -4 -22 10 -7 9 -9 -4 -9 -10 0 -18 -5 -18 -11 0 -15 -27 7 -41 32 -7 15
-6 17 6 13 8 -4 15 -11 15 -16 0 -22 23 0 26 25 1 14 0 26 -4 24 -11 -3 -12
11 -2 35 5 14 9 17 10 8 0 -12 3 -11 11 3 8 14 8 22 -1 30 -10 9 -14 9 -17 -1
-3 -6 -9 -9 -15 -6 -7 5 -9 -3 -4 -22 5 -21 4 -25 -4 -14 -5 8 -10 23 -10 32
0 9 -5 20 -12 24 -8 5 -9 -2 -5 -24 5 -27 3 -30 -14 -29 -16 1 -19 7 -16 24 2
13 -2 24 -10 27 -8 3 -11 11 -8 16 4 6 4 18 1 26 -5 14 -8 14 -22 0 -14 -15
-14 -21 1 -66 12 -37 15 -66 10 -115 -7 -66 -24 -80 -26 -22 -1 20 -3 25 -6
13 -4 -15 -7 -16 -14 -5 -6 10 -9 10 -9 2 0 -7 -7 -13 -15 -13 -17 0 -18 -4
-9 -37 5 -17 14 -23 33 -23 17 0 22 -3 13 -8 -7 -5 -10 -16 -7 -24 4 -10 -1
-17 -13 -20 -13 -4 -22 -18 -27 -44 -4 -22 -12 -42 -18 -46 -17 -11 -47 -10
-47 2 0 5 7 7 15 4 10 -4 18 3 25 21 6 15 8 30 5 34 -9 8 -25 -21 -18 -33 3
-5 1 -6 -6 -2 -6 4 -18 2 -26 -4 -11 -9 -15 -9 -15 -1 0 6 4 11 8 11 16 0 82
99 76 114 -3 9 -11 13 -17 9 -6 -4 -8 1 -5 13 13 44 12 49 -2 49 -8 0 -21 4
-27 8 -7 5 -18 5 -23 2 -6 -3 -24 3 -40 15 -17 12 -30 16 -30 10 0 -6 -5 -8
-11 -5 -6 4 -9 1 -7 -6 1 -8 -6 -26 -16 -41 -11 -16 -15 -36 -12 -50 3 -13 3
-17 0 -10 -5 10 -9 10 -20 1 -7 -6 -20 -9 -29 -5 -16 6 -16 -17 -1 -44 7 -12
6 -13 -5 -2 -19 18 -49 15 -49 -5 0 -14 -2 -15 -12 -4 -11 10 -10 14 5 22 9 6
17 17 17 25 0 9 5 12 12 8 7 -5 8 -3 4 5 -8 12 23 43 35 35 3 -2 18 20 33 50
25 50 26 54 12 87 l-15 34 -1 -45 c-1 -25 -4 -40 -6 -33 -3 7 -12 9 -20 6 -10
-3 -14 2 -14 19 0 14 -11 37 -25 52 -27 30 -32 46 -12 46 6 0 20 12 31 26 18
25 18 27 -1 52 -11 14 -25 28 -31 30 -13 4 -12 -24 2 -47 7 -11 4 -13 -12 -9
-14 4 -22 2 -22 -6 0 -7 -7 -13 -15 -13 -18 0 -18 2 -4 30 9 19 8 19 -11 -3
l-21 -25 4 34 c4 33 4 33 -13 11 -10 -14 -20 -19 -24 -12 -3 6 -14 9 -23 8
-10 -2 -24 3 -32 11 -11 12 -11 16 5 28 11 8 21 15 24 15 3 0 11 9 18 20 11
18 7 25 -33 63 -25 24 -45 51 -45 60 0 9 -7 17 -15 17 -19 0 -19 -10 1 -39 20
-28 55 -121 46 -121 -4 0 -18 26 -32 58 l-25 57 -6 -39 c-7 -44 -39 -76 -73
-76 -19 1 -19 2 6 15 27 15 49 67 47 110 -1 11 -5 1 -11 -23 -8 -35 -15 -45
-45 -57 -20 -9 -38 -13 -41 -10 -3 2 -10 -2 -16 -9 -7 -9 -18 -11 -31 -6 -19
7 -19 8 5 19 14 7 33 24 43 37 18 25 18 25 -7 45 -14 11 -26 27 -26 36 0 8 -9
26 -20 40 -15 19 -20 21 -20 9 0 -9 -4 -16 -10 -16 -6 0 -6 -9 0 -26 13 -34
13 -64 -1 -64 -7 0 -9 9 -6 21 4 17 3 19 -6 10 -16 -16 -27 -14 -21 4 4 10 0
15 -13 15 -11 0 -20 7 -21 15 -1 8 -3 22 -4 29 -1 12 -6 13 -21 5 -10 -6 -21
-9 -23 -6 -2 2 7 10 21 17 14 8 24 19 21 26 -2 6 1 17 7 23 8 8 7 11 -5 11
-21 0 -43 26 -28 35 5 3 10 1 10 -6 0 -7 8 -9 23 -4 12 3 30 8 39 9 10 1 21 6
25 11 5 4 3 5 -4 2 -13 -8 -35 46 -25 59 4 5 -1 3 -10 -5 -9 -7 -16 -18 -14
-24 1 -7 1 -9 -1 -4 -3 4 -15 7 -27 7 -29 0 -39 10 -26 25 8 9 4 14 -15 19
-15 4 -23 11 -19 17 4 8 9 7 15 -2 7 -11 9 -11 9 2 0 9 -10 20 -22 24 -17 5
-19 8 -8 12 8 3 32 17 53 31 29 19 39 33 43 64 5 27 15 45 35 59 16 11 29 29
29 38 0 10 7 24 15 31 8 7 12 16 9 21 -3 5 -2 9 3 9 4 0 13 -11 20 -25z m623
-9 c0 -2 -7 -7 -16 -10 -8 -3 -12 -2 -9 4 6 10 25 14 25 6z m-1274 -43 c-9
-10 -22 -26 -29 -36 -12 -17 -13 -17 -14 2 -1 12 8 28 20 36 29 21 44 19 23
-2z m1042 -87 c17 1 20 -1 11 -12 -6 -7 -8 -18 -4 -24 11 -18 -5 -31 -20 -16
-8 8 -20 17 -27 20 -10 5 -10 7 0 12 9 4 7 12 -8 31 -11 14 -20 37 -20 51 0
23 3 20 23 -18 17 -34 27 -45 45 -44z m-1 52 c-3 -8 -6 -5 -6 6 -1 11 2 17 5
13 3 -3 4 -12 1 -19z m-1020 -10 c2 -17 0 -19 -7 -8 -5 8 -6 18 -4 22 8 12 10
10 11 -14z m352 -29 c-13 -11 -25 -25 -25 -30 -1 -5 -2 -12 -3 -16 0 -4 -6 -2
-13 5 -8 8 -17 8 -31 1 -15 -9 -18 -8 -15 2 2 7 18 17 35 21 17 4 36 15 43 23
7 8 17 15 23 15 5 0 -1 -9 -14 -21z m659 -4 c-3 -3 -9 2 -12 12 -6 14 -5 15 5
6 7 -7 10 -15 7 -18z m-1006 -70 c-2 -25 -9 -45 -14 -45 -6 0 -8 13 -4 31 3
17 6 38 6 45 0 8 3 14 8 14 4 0 6 -20 4 -45z m1094 2 c5 -30 10 -42 23 -56 11
-13 10 -16 -9 -23 -13 -5 -25 -6 -28 -3 -3 3 0 5 7 5 12 0 11 14 -3 79 -3 13
-2 21 1 17 4 -4 8 -12 9 -19z m-799 7 c-3 -3 -12 -4 -19 -1 -8 3 -5 6 6 6 11
1 17 -2 13 -5z m-327 -8 c0 -2 -7 -9 -15 -16 -12 -10 -15 -10 -15 4 0 9 7 16
15 16 8 0 15 -2 15 -4z m1110 -26 c0 -5 -10 -10 -22 -10 -19 0 -20 2 -8 10 19
13 30 13 30 0z m81 -17 c-8 -15 -10 -15 -11 -2 0 17 10 32 18 25 2 -3 -1 -13
-7 -23z m-844 -5 c-3 -8 -6 -5 -6 6 -1 11 2 17 5 13 3 -3 4 -12 1 -19z m63 12
c0 -5 -2 -10 -4 -10 -3 0 -8 5 -11 10 -3 6 -1 10 4 10 6 0 11 -4 11 -10z
m-243 -6 c-3 -3 -12 -4 -19 -1 -8 3 -5 6 6 6 11 1 17 -2 13 -5z m-237 -29 c7
-8 13 -33 14 -56 0 -22 2 -35 4 -29 2 5 7 8 12 5 5 -3 17 6 28 20 30 38 49 33
47 -12 -1 -24 -6 -37 -14 -35 -6 1 -26 -11 -44 -28 -30 -28 -55 -40 -43 -21 3
4 -1 17 -9 27 -13 18 -15 17 -25 -13 -7 -18 -16 -33 -21 -33 -4 0 -6 -8 -3
-17 4 -11 3 -14 -3 -7 -4 6 -16 12 -25 12 -42 4 -48 6 -48 15 0 5 7 6 16 3 13
-5 14 -4 6 7 -12 14 -9 45 8 88 9 20 16 25 39 21 37 -5 64 24 38 43 -9 7 -17
15 -17 19 0 12 28 6 40 -9z m510 11 c0 -3 -4 -8 -10 -11 -5 -3 -10 -1 -10 4 0
6 5 11 10 11 6 0 10 -2 10 -4z m461 -29 c-10 -9 -11 -8 -5 6 3 10 9 15 12 12
3 -3 0 -11 -7 -18z m89 3 c0 -5 -5 -10 -11 -10 -5 0 -7 5 -4 10 3 6 8 10 11
10 2 0 4 -4 4 -10z m-560 -10 c0 -5 7 -10 15 -10 8 0 15 -5 15 -10 0 -7 -6 -7
-19 -1 -10 6 -21 7 -25 4 -3 -3 -6 1 -6 10 0 10 5 17 10 17 6 0 10 -4 10 -10z
m-333 -22 c-3 -8 -6 -5 -6 6 -1 11 2 17 5 13 3 -3 4 -12 1 -19z m928 12 c-4
-6 -2 -16 3 -23 8 -9 -1 -12 -38 -12 -26 0 -46 3 -43 8 2 4 17 7 33 7 15 0 30
7 34 15 3 8 8 15 11 15 4 0 3 -5 0 -10z m-85 -10 c0 -5 -5 -10 -11 -10 -5 0
-7 5 -4 10 3 6 8 10 11 10 2 0 4 -4 4 -10z m-430 -24 c0 -3 -4 -8 -10 -11 -5
-3 -10 -1 -10 4 0 6 5 11 10 11 6 0 10 -2 10 -4z m-243 -38 c-3 -7 -5 -2 -5
12 0 14 2 19 5 13 2 -7 2 -19 0 -25z m-24 15 c-7 -2 -21 -2 -30 0 -10 3 -4 5
12 5 17 0 24 -2 18 -5z m174 -15 c-3 -8 -6 -5 -6 6 -1 11 2 17 5 13 3 -3 4
-12 1 -19z m-340 -20 c-3 -8 -6 -5 -6 6 -1 11 2 17 5 13 3 -3 4 -12 1 -19z
m-75 -40 c-7 -7 -12 -30 -12 -52 0 -30 -3 -37 -10 -26 -7 11 -10 11 -10 2 0
-7 -5 -10 -11 -6 -8 5 -10 -1 -7 -20 6 -28 1 -31 -21 -17 -9 6 -10 11 -2 15 6
4 11 11 11 17 0 12 -37 12 -45 -1 -3 -5 -1 -10 5 -10 6 0 8 -5 5 -10 -5 -8
-11 -7 -21 1 -10 8 -14 8 -14 0 0 -6 -7 -11 -15 -11 -8 0 -15 5 -15 11 0 6 -9
9 -20 6 -11 -3 -20 -4 -20 -3 0 4 148 77 157 78 5 0 14 9 21 19 7 11 18 19 25
19 8 0 8 -3 -1 -12z m-212 -12 c0 -3 -4 -8 -10 -11 -5 -3 -10 -1 -10 4 0 6 5
11 10 11 6 0 10 -2 10 -4z m367 -2 c-3 -3 -12 -4 -19 -1 -8 3 -5 6 6 6 11 1
17 -2 13 -5z m935 -26 c-8 -8 -9 -4 -5 13 4 13 8 18 11 10 2 -7 -1 -18 -6 -23z
m-1065 -13 c1 -19 -2 -35 -6 -35 -3 0 -7 8 -7 18 -1 9 -4 25 -9 35 -5 11 -3
17 6 17 9 0 15 -13 16 -35z m213 15 c0 -5 -10 -10 -22 -9 -22 0 -22 1 -3 9 11
5 21 9 23 9 1 1 2 -3 2 -9z m388 -66 c-3 -14 -5 -12 -10 9 -3 19 -2 25 4 19 6
-6 8 -18 6 -28z m-500 -9 c-3 -3 -9 2 -12 12 -6 14 -5 15 5 6 7 -7 10 -15 7
-18z m-140 -12 c-2 -10 -14 -21 -27 -25 -35 -10 -39 -1 -7 13 14 7 26 16 26
21 0 4 2 8 5 8 3 0 5 -8 3 -17z m639 -35 c-3 -7 -5 -2 -5 12 0 14 2 19 5 13 2
-7 2 -19 0 -25z m528 -6 c-3 -3 -11 0 -18 7 -9 10 -8 11 6 5 10 -3 15 -9 12
-12z m-5 -58 c9 -7 24 -11 35 -10 26 4 77 -25 71 -41 -3 -6 1 -10 7 -7 7 2 17
-9 24 -26 12 -31 6 -39 -14 -19 -6 6 -9 18 -6 27 4 10 2 13 -5 8 -6 -3 -14 0
-19 7 -4 8 -18 18 -30 21 -19 6 -22 4 -16 -10 5 -14 2 -13 -15 4 -12 12 -27
22 -34 22 -6 0 -23 10 -36 23 -23 21 -24 21 -14 1 16 -30 39 -47 53 -38 7 4 9
3 6 -2 -3 -6 12 -21 33 -34 42 -26 69 -67 44 -67 -8 0 -13 6 -10 13 3 8 0 11
-10 7 -7 -3 -14 -1 -14 4 0 13 -30 12 -30 -1 -1 -6 -8 3 -17 19 -9 17 -14 31
-12 31 9 4 -34 43 -45 41 -6 -1 -11 12 -12 30 -1 30 0 31 25 20 14 -6 33 -17
41 -23z m30 6 c0 -5 -4 -10 -10 -10 -5 0 -10 5 -10 10 0 6 5 10 10 10 6 0 10
-4 10 -10z m-437 -37 c-7 -2 -19 -2 -25 0 -7 3 -2 5 12 5 14 0 19 -2 13 -5z
m51 -5 c-3 -4 0 -8 7 -8 7 0 10 -3 6 -6 -3 -3 -16 1 -28 9 -22 16 -22 16 -1
14 11 0 18 -5 16 -9z m532 -33 c-11 -8 -25 -15 -30 -15 -6 0 -2 7 8 15 11 8
25 15 30 15 6 0 2 -7 -8 -15z m-503 -42 c-6 -16 -5 -16 17 0 37 26 53 20 78
-28 26 -53 27 -55 6 -55 -10 0 -14 -5 -10 -16 3 -8 2 -12 -4 -9 -6 3 -15 3
-22 -1 -18 -11 -58 -14 -58 -5 0 5 7 15 17 22 16 14 43 69 43 89 0 5 -7 10
-16 10 -8 0 -12 -5 -9 -10 7 -12 -38 -32 -75 -34 -14 0 -24 -6 -23 -12 1 -7
-6 -10 -17 -7 -30 8 -24 18 19 33 22 7 42 19 45 26 3 8 8 14 10 14 3 0 2 -8
-1 -17z m452 -53 c3 -6 -1 -7 -9 -4 -18 7 -21 14 -7 14 6 0 13 -4 16 -10z m-3
-212 c-7 -7 -12 -21 -12 -31 0 -15 -3 -17 -13 -8 -19 15 -28 2 -16 -22 8 -14
8 -18 0 -13 -6 4 -14 0 -17 -8 -3 -9 -16 -15 -29 -14 -13 1 -21 6 -19 10 3 5
9 6 14 3 16 -10 -2 34 -21 51 -10 9 -19 22 -19 28 0 6 11 -2 23 -18 23 -28 24
-28 49 -12 15 10 29 24 32 32 3 8 13 14 23 14 13 0 14 -3 5 -12z m425 -50 c-3
-8 -6 -5 -6 6 -1 11 2 17 5 13 3 -3 4 -12 1 -19z m-252 -16 c-3 -3 -11 0 -18
7 -9 10 -8 11 6 5 10 -3 15 -9 12 -12z m-299 -23 c3 -6 3 -14 -2 -18 -5 -3 -9
-17 -10 -31 0 -14 -3 -32 -5 -40 -2 -9 2 -14 14 -14 9 1 17 -2 17 -7 0 -4 19
-19 43 -33 23 -14 56 -40 72 -58 22 -24 23 -27 6 -13 -24 20 -24 20 -17 1 6
-19 6 -19 -12 -3 -10 9 -24 17 -30 17 -7 0 -24 18 -38 40 -15 22 -31 40 -36
40 -5 0 -6 -5 -2 -11 13 -22 11 -96 -3 -96 -7 0 -13 6 -13 14 0 21 -21 15 -27
-8 -4 -14 -8 -17 -13 -9 -5 9 -10 6 -15 -9 -3 -11 -11 -21 -16 -21 -6 0 -7 6
-4 13 4 6 0 4 -8 -5 -19 -24 -30 -23 -22 2 3 11 2 20 -4 20 -12 0 12 50 30 60
6 4 13 26 15 49 1 24 14 60 31 86 29 47 37 52 49 34z m-185 -32 c-1 -12 -15
-9 -19 4 -3 6 1 10 8 8 6 -3 11 -8 11 -12z m374 -27 c-9 -16 -17 -30 -19 -30
-3 0 -12 -3 -22 -7 -11 -4 -4 8 16 29 43 45 44 45 25 8z m186 -14 c-7 -8 -3
-28 14 -65 28 -60 29 -61 15 -61 -5 0 -10 6 -10 13 0 7 -7 22 -16 33 -14 18
-15 17 -11 -13 2 -18 0 -33 -4 -33 -5 0 -4 -12 1 -26 14 -35 13 -37 -15 -32
-13 3 -26 0 -28 -5 -2 -7 -9 -7 -18 -2 -8 5 -24 8 -36 7 -11 -2 -24 1 -27 6
-3 5 3 8 13 8 18 -1 101 87 101 107 0 7 -5 4 -11 -6 -6 -10 -24 -31 -40 -48
-23 -24 -33 -28 -44 -19 -11 9 -7 17 21 43 19 18 36 40 38 49 3 23 46 69 58
62 5 -3 5 -11 -1 -18z m-145 -9 c1 -9 -2 -17 -7 -17 -4 0 -6 -8 -3 -17 5 -16
4 -17 -8 -2 -11 13 -16 14 -25 4 -7 -7 -9 -16 -5 -19 3 -4 -1 -4 -11 0 -22 8
-22 10 11 44 29 31 44 33 48 7z m307 -59 c-2 -3 3 -9 9 -11 8 -4 9 -6 2 -6 -6
-1 -17 6 -24 14 -18 22 -32 18 -20 -5 6 -11 8 -20 5 -20 -16 0 61 -93 101
-122 25 -18 41 -34 35 -36 -15 -5 -62 27 -98 67 l-32 36 6 -60 c8 -88 24 -111
84 -129 28 -9 56 -14 62 -13 7 1 11 -3 10 -10 -4 -18 58 -28 68 -12 13 20 11
31 -11 59 -17 21 -21 23 -29 10 -7 -10 -6 -17 2 -22 8 -5 7 -8 -5 -8 -10 0
-23 10 -29 22 l-11 21 -12 -21 c-10 -19 -14 -20 -27 -10 -19 15 -49 59 -49 70
0 5 5 8 10 8 6 0 10 -5 10 -11 0 -6 8 -22 19 -35 18 -22 19 -23 35 -5 9 9 16
23 16 29 0 24 35 11 68 -25 19 -21 34 -39 33 -40 -1 -3 -1 -3 27 -3 15 1 15 2
-2 15 -18 14 -18 15 -2 15 10 0 29 8 42 19 14 11 33 17 49 13 23 -4 24 -6 9
-17 -10 -6 -14 -17 -11 -22 4 -6 0 -16 -8 -23 -8 -7 -15 -18 -15 -25 0 -7 -7
-19 -17 -26 -15 -13 -15 -12 -4 11 11 24 11 24 -3 6 -9 -11 -16 -23 -16 -28 0
-15 -31 -8 -37 8 -6 15 -7 15 -19 -1 -7 -10 -20 -15 -29 -12 -13 6 -13 4 -1
-16 20 -31 24 -69 7 -75 -9 -3 -11 1 -6 17 9 28 -3 27 -16 -1 -8 -19 -9 -16
-5 17 2 22 2 34 -1 26 -5 -11 -7 -11 -14 0 -7 11 -9 9 -9 -6 0 -17 -2 -17 -10
-5 -8 12 -10 8 -11 -15 -1 -27 -2 -28 -7 -7 -4 13 -11 23 -15 23 -13 0 -37
-29 -37 -44 0 -18 -30 -31 -31 -14 0 7 -4 3 -9 -8 -7 -17 -9 -17 -9 -2 -1 16
-11 21 -38 18 -18 -2 -16 24 1 38 8 7 51 25 97 40 56 19 76 30 62 33 -11 3
-28 1 -37 -4 -13 -7 -22 -5 -35 6 -23 21 -45 21 -37 0 5 -14 4 -15 -8 -5 -8 7
-20 10 -26 6 -6 -4 -17 -1 -25 5 -11 9 -15 9 -15 1 0 -6 11 -16 25 -21 14 -5
25 -16 25 -25 0 -19 -16 -20 -24 0 -3 8 -12 15 -20 15 -18 0 -76 32 -76 43 0
4 -7 7 -15 7 -8 0 -15 2 -15 4 0 2 -3 11 -6 20 -4 11 -1 16 10 16 24 0 19 17
-6 25 -22 6 -22 7 7 20 17 8 26 14 20 15 -5 0 -4 4 3 8 7 5 14 22 16 38 2 17
11 48 20 69 10 22 14 51 11 65 -4 20 -3 22 6 10 9 -12 10 -11 6 8 -10 43 2 52
32 23 15 -14 26 -29 24 -33z m-343 -43 c0 -11 -19 -4 -41 15 l-24 21 33 -16
c17 -8 32 -18 32 -20z m221 -102 c-20 -17 -56 -16 -70 1 -10 12 -5 13 28 10
l40 -4 -10 33 c-13 45 -11 47 10 7 16 -31 16 -36 2 -47z m220 30 c13 -16 12
-17 -3 -4 -10 7 -18 15 -18 17 0 8 8 3 21 -13z m46 1 c-3 -3 -12 -4 -19 -1 -8
3 -5 6 6 6 11 1 17 -2 13 -5z m-447 -19 c7 -8 10 -15 7 -15 -3 0 -1 -17 3 -37
5 -21 4 -67 0 -103 l-9 -65 3 66 c2 37 0 73 -5 80 -13 21 -43 -27 -41 -68 1
-50 2 -51 17 -13 l13 35 1 -31 c1 -18 -7 -40 -16 -51 -10 -10 -14 -13 -9 -6 8
12 2 17 -17 14 -5 -1 -6 3 -2 9 3 5 -5 14 -18 19 -14 6 -28 16 -31 23 -3 7 -4
1 -2 -14 4 -34 -2 -36 -13 -5 -5 13 -5 27 1 35 6 6 8 12 6 12 -3 0 10 16 28
36 29 31 40 57 35 87 -2 13 36 7 49 -8z m136 -50 c-11 -8 -27 -15 -35 -15 -10
1 -7 6 9 15 33 19 50 18 26 0z m414 -34 l35 -11 -38 5 c-42 4 -70 22 -61 37 3
5 11 3 17 -6 7 -8 28 -20 47 -25z m-512 -82 c-3 -20 -5 -19 -9 9 -3 20 -2 29
4 23 5 -5 7 -19 5 -32z m641 -9 c4 0 16 9 26 20 10 11 28 20 39 20 17 0 18 -2
6 -10 -12 -8 -12 -10 3 -16 11 -4 17 -17 16 -38 0 -25 -2 -27 -8 -11 -7 18 -9
16 -15 -12 -4 -18 -20 -42 -34 -53 -15 -12 -20 -19 -12 -17 8 2 20 -2 27 -9 7
-7 23 -10 35 -6 20 5 21 3 10 -10 -10 -12 -9 -18 3 -28 12 -10 16 -8 24 11 5
13 10 18 10 11 1 -7 -4 -22 -10 -33 -9 -17 -13 -18 -27 -7 -9 7 -13 8 -9 2 4
-7 0 -14 -8 -18 -8 -3 -17 -1 -20 4 -4 6 -1 10 6 10 7 0 10 2 7 5 -9 9 -38 -7
-32 -17 4 -6 -1 -6 -13 1 -11 6 -23 8 -26 5 -2 -3 -15 8 -27 23 -21 25 -22 26
-17 6 5 -20 1 -23 -29 -23 -23 0 -37 6 -44 19 -16 31 -12 37 19 35 18 -1 32 4
35 12 4 10 -2 14 -19 14 -30 0 -65 28 -65 53 0 14 4 16 17 9 19 -11 73 4 73
20 0 6 6 5 15 -2 8 -7 15 -9 15 -4 0 5 4 2 10 -6 6 -9 5 -17 -3 -22 -6 -4 -9
-10 -6 -13 10 -10 37 6 54 32 13 20 14 28 4 37 -9 8 -11 7 -6 -5 4 -13 1 -15
-14 -12 -10 3 -19 9 -19 14 0 5 -7 9 -15 9 -18 0 -19 4 -2 31 12 19 12 19 15
-6 2 -14 7 -25 11 -25z m174 32 c-21 -13 -36 -64 -21 -73 7 -4 9 -11 6 -14
-21 -21 -32 35 -19 93 1 1 11 2 24 2 13 0 18 -3 10 -8z m14 -42 c2 -20 -2 -30
-12 -30 -17 0 -16 40 0 52 6 4 10 8 10 8 0 0 1 -14 2 -30z m-820 -32 c-3 -8
-6 -5 -6 6 -1 11 2 17 5 13 3 -3 4 -12 1 -19z m417 -107 c4 -5 -3 -7 -14 -4
-14 4 -30 -3 -45 -17 -18 -17 -25 -19 -25 -9 -1 11 -4 10 -14 -3 -20 -27 -29
-21 -10 6 8 14 25 27 37 29 40 8 66 7 71 -2z m464 -39 c6 6 12 6 16 -1 4 -5
-6 -17 -21 -26 l-28 -15 30 7 c17 4 38 6 47 5 10 0 20 3 23 9 4 5 15 5 27 -2
21 -11 21 -12 2 -27 -18 -14 -18 -14 6 -9 14 4 32 2 40 -3 11 -7 17 -4 22 8 5
14 7 13 7 -6 1 -14 10 -27 26 -34 14 -6 25 -14 25 -18 0 -11 -67 -5 -82 7 -16
14 -28 8 -28 -14 0 -7 6 -13 14 -13 18 0 29 -17 21 -30 -5 -8 -11 -8 -20 0 -9
8 -15 8 -20 0 -3 -5 -11 -10 -16 -10 -6 0 -7 5 -3 12 4 7 3 8 -5 4 -6 -4 -9
-12 -6 -17 4 -5 0 -9 -7 -9 -10 0 -9 -3 2 -9 8 -6 17 -8 21 -5 4 2 9 -5 12
-16 3 -11 13 -20 23 -20 16 0 15 2 -4 20 -24 22 -27 35 -13 44 5 3 12 -1 15
-10 3 -8 9 -13 14 -10 6 4 8 -38 2 -54 -1 -3 -2 -9 -1 -13 1 -5 -3 -5 -9 -2
-7 4 -10 0 -8 -11 2 -13 -2 -18 -13 -16 -11 1 -21 -8 -27 -28 -14 -37 -30 -39
-38 -2 -8 31 -22 52 -36 52 -5 0 -2 -7 6 -16 18 -17 21 -28 7 -20 -5 4 -11 3
-14 -1 -2 -5 -2 -3 -1 4 2 7 -1 15 -7 19 -7 4 -6 10 0 18 6 7 7 16 3 21 -4 4
3 2 16 -4 12 -7 27 -9 32 -6 5 3 20 1 32 -6 18 -9 17 -6 -7 17 -16 16 -33 25
-37 20 -4 -6 -12 -5 -21 2 -7 7 -18 8 -22 4 -5 -4 -6 1 -2 10 10 28 -22 31
-35 3 -14 -32 -26 -32 -24 0 0 14 9 28 19 31 9 3 17 9 17 14 0 7 48 5 76 -5
14 -4 5 41 -13 70 l-13 20 -12 -20 c-7 -11 -13 -23 -14 -27 -1 -5 -2 -11 -3
-15 -1 -5 -5 -2 -9 5 -6 9 -17 4 -40 -19 -19 -19 -32 -26 -32 -17 0 7 -9 20
-19 28 -11 7 -18 17 -15 22 3 4 1 8 -4 8 -6 0 -8 9 -5 20 3 11 10 20 16 20 6
0 8 3 5 6 -4 3 -21 -2 -38 -11 -32 -17 -33 -16 -27 4 2 11 0 22 -7 25 -6 2 4
2 22 -1 24 -4 36 -1 45 11 7 9 24 23 37 30 21 11 29 11 46 0 15 -9 25 -9 32
-2z m-282 -24 c4 -6 3 -8 -4 -4 -6 3 -14 -3 -17 -15 -6 -16 -9 -18 -15 -8 -5
7 -6 17 -3 23 4 5 1 6 -6 2 -7 -5 -10 -14 -8 -20 3 -7 -1 -13 -9 -13 -17 0
-17 3 -4 28 12 21 55 26 66 7z m-171 -8 c-3 -5 -12 -10 -18 -10 -7 0 -6 4 3
10 19 12 23 12 15 0z m162 -32 c-3 -8 -6 -5 -6 6 -1 11 2 17 5 13 3 -3 4 -12
1 -19z m70 -21 c-3 -10 -22 -10 -22 1 0 4 -4 13 -9 20 -7 11 -4 11 13 0 12 -7
20 -17 18 -21z m561 -58 c10 0 12 -3 5 -5 -7 -3 -10 -11 -7 -18 3 -7 0 -23 -5
-37 l-10 -24 0 28 c-1 15 -5 27 -11 27 -12 0 -14 43 -2 54 4 4 8 1 10 -8 2 -9
11 -16 20 -17z m-114 -1 c11 10 46 12 46 3 0 -5 -9 -13 -20 -16 -25 -8 -80 3
-80 16 0 5 10 5 24 -1 13 -5 27 -6 30 -2z m180 -39 c-2 -4 4 -10 13 -12 15 -4
15 -5 2 -6 -9 0 -22 5 -28 12 -8 10 -7 14 4 14 8 0 12 -4 9 -8z m-141 -14 c-3
-9 -8 -14 -10 -11 -3 3 -2 9 2 15 9 16 15 13 8 -4z m191 -20 c-7 -16 -24 -21
-24 -6 0 8 7 13 27 20 1 1 0 -6 -3 -14z m-34 -55 c9 -16 8 -18 -5 -14 -8 4
-15 12 -15 20 0 20 7 17 20 -6z m64 -25 c-4 -8 -8 -15 -10 -15 -2 0 -4 7 -4
15 0 8 4 15 10 15 5 0 7 -7 4 -15z m58 -47 c-7 -7 -12 -8 -12 -2 0 14 12 26
19 19 2 -3 -1 -11 -7 -17z m-332 -312 c-14 -14 -22 -2 -14 18 5 14 9 15 15 4
4 -7 4 -17 -1 -22z m-980 -450 c0 -3 -4 -8 -10 -11 -5 -3 -10 -1 -10 4 0 6 5
11 10 11 6 0 10 -2 10 -4z m120 -61 c5 3 10 1 10 -4 0 -6 -5 -11 -10 -11 -7 0
-7 -7 1 -22 10 -18 9 -20 -5 -15 -8 3 -19 1 -23 -6 -9 -15 -21 30 -15 56 3 13
8 15 18 6 7 -6 18 -8 24 -4z m402 -76 c-7 -10 -12 -27 -13 -36 0 -17 -1 -16
-8 0 -6 17 -8 17 -20 3 -7 -9 -18 -16 -24 -16 -5 0 2 9 17 21 14 11 26 29 26
39 0 10 3 26 7 36 6 16 8 15 17 -5 7 -16 6 -28 -2 -42z m-212 29 c0 -12 42 1
53 16 6 7 7 4 3 -7 -4 -14 -1 -17 17 -14 12 2 35 9 50 15 35 15 40 15 32 2 -3
-5 -1 -10 5 -10 6 0 3 -11 -7 -24 -13 -17 -21 -21 -30 -14 -10 8 -13 6 -13 -5
0 -9 5 -19 10 -22 6 -4 8 -11 5 -16 -4 -5 -1 -10 4 -10 6 -1 15 -2 20 -3 5 0
13 -5 18 -10 5 -5 -4 -6 -20 -2 -16 4 -26 3 -23 -2 3 -5 -1 -9 -9 -9 -11 0
-12 4 -4 14 9 10 8 13 -5 13 -9 0 -16 -8 -16 -20 0 -12 -7 -20 -17 -20 -9 0
-13 3 -10 7 12 12 -14 31 -35 25 -14 -3 -19 -1 -14 6 4 8 2 10 -7 6 -12 -4
-15 3 -13 31 1 34 0 36 -24 29 -14 -3 -31 -7 -37 -7 -7 0 -13 -4 -13 -9 0 -5
10 -6 21 -3 16 6 20 4 13 -6 -6 -12 -5 -12 9 0 18 15 18 16 21 -39 0 -14 12
-32 26 -42 20 -14 21 -18 8 -18 -10 0 -18 3 -18 8 0 4 -14 15 -30 24 -18 10
-30 25 -30 38 0 13 -7 20 -19 20 -29 0 -61 53 -39 66 6 4 8 3 5 -3 -4 -6 0
-13 8 -17 8 -3 15 0 15 5 0 7 11 9 26 6 16 -3 28 0 31 9 5 14 33 8 33 -8z
m-136 -53 c18 -14 39 -25 46 -25 7 0 3 -9 -10 -20 -24 -21 -35 -26 -27 -12 3
4 -6 21 -20 37 -22 27 -25 27 -20 8 6 -27 -1 -29 -19 -5 -35 45 -1 56 50 17z"/>
<path d="M1850 3731 c0 -4 10 -23 23 -42 39 -57 42 -65 19 -45 -20 17 -27 15
-23 -6 0 -5 -3 -8 -8 -8 -12 0 -37 40 -45 74 -5 20 -10 26 -17 19 -15 -15 23
-86 53 -100 l23 -12 -23 0 c-16 -1 -29 10 -43 34 -12 19 -22 35 -23 35 -7 0 6
-95 16 -113 l12 -22 10 27 c7 21 17 28 45 30 26 2 39 10 48 28 7 13 19 30 28
36 14 11 14 12 -1 18 -9 3 -21 3 -26 -1 -6 -3 -9 -2 -5 3 3 5 -10 19 -29 32
-19 12 -34 18 -34 13z"/>
<path d="M1835 3693 c2 -30 16 -46 28 -34 8 8 6 17 -9 32 -19 19 -21 19 -19 2z"/>
<path d="M1652 3580 c0 -19 2 -27 5 -17 2 9 2 25 0 35 -3 9 -5 1 -5 -18z"/>
<path d="M1620 3553 c0 -12 6 -24 13 -26 9 -4 8 -8 -3 -16 -9 -7 -10 -11 -3
-11 21 0 24 19 9 47 -14 25 -15 26 -16 6z"/>
<path d="M1552 3495 c-12 -27 -3 -39 24 -28 12 5 15 3 9 -6 -6 -10 -3 -11 14
-2 11 7 21 17 20 24 0 9 -2 9 -6 0 -8 -21 -23 -15 -24 10 l0 22 -11 -22 c-6
-13 -15 -23 -20 -23 -5 0 -4 9 2 21 7 11 10 23 7 25 -2 2 -9 -7 -15 -21z"/>
<path d="M1680 3479 c0 -17 13 -39 22 -39 6 0 6 5 -1 14 -9 11 -9 14 1 12 7 0
14 4 16 9 1 6 -7 11 -18 11 -11 1 -20 -2 -20 -7z"/>
<path d="M1544 3425 c-3 -8 -4 -20 -2 -27 3 -7 7 -1 10 15 6 29 1 36 -8 12z"/>
<path d="M1231 3330 c-1 -8 -4 -26 -7 -40 -4 -20 -3 -22 5 -10 9 12 11 13 11
1 0 -8 2 -12 4 -10 3 2 1 20 -4 39 -4 19 -8 28 -9 20z"/>
<path d="M1200 3245 c0 -19 -34 -37 -57 -28 -12 4 -10 0 7 -15 l25 -21 22 27
c24 28 30 52 13 52 -5 0 -10 -7 -10 -15z"/>
<path d="M1205 3180 c-3 -5 -1 -10 4 -10 6 0 11 5 11 10 0 6 -2 10 -4 10 -3 0
-8 -4 -11 -10z"/>
<path d="M1190 3144 c0 -8 5 -12 10 -9 6 4 8 11 5 16 -9 14 -15 11 -15 -7z"/>
<path d="M1311 3062 c-7 -14 -6 -19 3 -19 6 0 13 9 13 19 1 10 0 18 -2 18 -2
0 -9 -8 -14 -18z"/>
<path d="M1455 3069 c-9 -14 -2 -20 14 -10 8 6 9 11 3 15 -6 3 -14 1 -17 -5z"/>
<path d="M2005 2650 c-3 -5 -1 -10 4 -10 6 0 11 5 11 10 0 6 -2 10 -4 10 -3 0
-8 -4 -11 -10z"/>
<path d="M2175 2509 c-4 -6 -5 -12 -2 -15 2 -3 7 2 10 11 7 17 1 20 -8 4z"/>
<path d="M581 3084 c0 -11 3 -14 6 -6 3 7 2 16 -1 19 -3 4 -6 -2 -5 -13z"/>
<path d="M1761 2251 c-25 -25 -28 -43 -6 -35 17 7 40 43 32 51 -3 2 -15 -5
-26 -16z"/>
<path d="M2267 2027 c-9 -11 -17 -25 -17 -30 0 -6 10 2 21 17 12 15 20 29 17
31 -2 2 -11 -6 -21 -18z"/>
<path d="M2208 1963 c7 -3 16 -2 19 1 4 3 -2 6 -13 5 -11 0 -14 -3 -6 -6z"/>
<path d="M2646 1925 c-11 -8 -15 -15 -9 -15 6 0 16 7 23 15 16 19 11 19 -14 0z"/>
<path d="M2615 1780 c-3 -6 1 -7 9 -4 18 7 21 14 7 14 -6 0 -13 -4 -16 -10z"/>
<path d="M230 3960 c0 -5 5 -10 11 -10 5 0 7 5 4 10 -3 6 -8 10 -11 10 -2 0
-4 -4 -4 -10z"/>
<path d="M93 3907 c-10 -32 -7 -57 6 -57 3 0 7 20 7 45 1 25 1 45 -1 45 -1 0
-6 -15 -12 -33z"/>
<path d="M2590 3919 c0 -5 5 -7 10 -4 6 3 10 8 10 11 0 2 -4 4 -10 4 -5 0 -10
-5 -10 -11z"/>
<path d="M3320 3924 c0 -20 60 -102 95 -129 40 -30 96 -55 122 -54 10 0 -2 6
-26 14 -68 21 -133 78 -173 149 -9 17 -17 26 -18 20z"/>
<path d="M66 3905 c-3 -8 -1 -15 4 -15 6 0 10 7 10 15 0 8 -2 15 -4 15 -2 0
-6 -7 -10 -15z"/>
<path d="M240 3896 c0 -14 41 -26 58 -17 15 9 15 10 -3 9 -11 0 -28 3 -37 7
-10 4 -18 5 -18 1z"/>
<path d="M196 3882 c-3 -5 1 -9 9 -9 8 0 12 4 9 9 -3 4 -7 8 -9 8 -2 0 -6 -4
-9 -8z"/>
<path d="M140 3861 c-8 -3 -16 -15 -17 -26 -1 -11 0 -14 3 -7 3 6 10 10 15 6
5 -3 8 -1 7 4 -2 6 2 10 7 10 6 0 8 -5 7 -11 -2 -7 0 -8 4 -4 24 23 7 41 -26
28z"/>
<path d="M268 3853 c7 -3 16 -2 19 1 4 3 -2 6 -13 5 -11 0 -14 -3 -6 -6z"/>
<path d="M3170 3826 c0 -9 5 -16 10 -16 6 0 10 4 10 9 0 6 -4 13 -10 16 -5 3
-10 -1 -10 -9z"/>
<path d="M3130 3820 c0 -5 7 -7 15 -4 8 4 15 8 15 10 0 2 -7 4 -15 4 -8 0 -15
-4 -15 -10z"/>
<path d="M133 3795 c0 -7 6 -11 14 -8 7 3 13 6 13 8 0 2 -6 5 -13 8 -8 3 -14
-1 -14 -8z"/>
<path d="M2992 3769 c2 -12 14 -28 28 -36 22 -13 23 -13 8 0 -10 8 -18 24 -18
36 0 11 -5 21 -11 21 -6 0 -9 -10 -7 -21z"/>
<path d="M3508 3783 c7 -3 16 -2 19 1 4 3 -2 6 -13 5 -11 0 -14 -3 -6 -6z"/>
<path d="M3585 3750 c-13 -6 -15 -9 -5 -9 8 0 22 4 30 9 18 12 2 12 -25 0z"/>
<path d="M133 3723 c9 -2 14 -9 11 -15 -4 -7 -2 -8 5 -4 15 10 4 26 -17 25
-15 -1 -15 -2 1 -6z"/>
<path d="M4 3696 c0 -15 5 -22 13 -19 9 4 10 10 2 24 -13 25 -15 24 -15 -5z"/>
<path d="M107 3709 c7 -7 15 -10 18 -7 3 3 -2 9 -12 12 -14 6 -15 5 -6 -5z"/>
<path d="M63 3695 c0 -8 4 -12 9 -9 5 3 6 10 3 15 -9 13 -12 11 -12 -6z"/>
<path d="M2870 3687 c0 -19 16 -31 24 -18 3 5 -1 14 -9 21 -12 10 -15 10 -15
-3z"/>
<path d="M3363 3685 c0 -8 4 -12 9 -9 5 3 6 10 3 15 -9 13 -12 11 -12 -6z"/>
<path d="M2915 3670 c-3 -5 -1 -10 4 -10 6 0 11 5 11 10 0 6 -2 10 -4 10 -3 0
-8 -4 -11 -10z"/>
<path d="M2890 3610 c0 -5 5 -10 11 -10 5 0 7 5 4 10 -3 6 -8 10 -11 10 -2 0
-4 -4 -4 -10z"/>
<path d="M2615 3569 c-5 -14 -1 -27 9 -37 14 -14 16 -14 16 -1 0 8 -5 20 -11
26 -7 7 -7 13 -1 17 12 7 52 -53 52 -78 0 -10 4 -15 10 -11 9 6 1 37 -22 83
-14 28 -45 29 -53 1z"/>
<path d="M2917 3564 c-3 -5 1 -15 9 -22 16 -14 18 -5 5 17 -5 7 -11 9 -14 5z"/>
<path d="M3312 3558 c2 -6 14 -12 26 -13 17 -1 19 1 11 12 -14 16 -42 17 -37
1z"/>
<path d="M3275 3523 c-15 -12 -16 -14 -3 -10 16 6 35 -20 23 -31 -3 -3 -5 0
-5 6 0 7 -5 12 -11 12 -8 0 -8 -4 1 -15 6 -8 8 -20 4 -27 -5 -10 -4 -10 6 -1
14 13 25 83 13 83 -5 0 -17 -8 -28 -17z"/>
<path d="M3810 3480 c-9 -6 -10 -10 -3 -10 6 0 15 5 18 10 8 12 4 12 -15 0z"/>
<path d="M2659 3450 c-13 -10 -19 -19 -13 -20 6 0 19 9 29 20 23 26 14 26 -16
0z"/>
<path d="M3390 3411 c0 -11 4 -22 9 -25 4 -3 6 6 3 19 -5 30 -12 33 -12 6z"/>
<path d="M3523 3383 c1 -26 12 -30 21 -7 3 8 2 13 -3 9 -5 -3 -11 1 -14 7 -3
7 -4 3 -4 -9z"/>
<path d="M3771 3377 c-8 -10 -7 -14 4 -14 8 0 15 6 15 14 0 7 -2 13 -4 13 -2
0 -9 -6 -15 -13z"/>
<path d="M3435 3340 c3 -5 11 -10 16 -10 6 0 7 5 4 10 -3 6 -11 10 -16 10 -6
0 -7 -4 -4 -10z"/>
<path d="M2720 3331 c0 -6 5 -11 11 -11 5 0 8 -4 5 -9 -3 -5 1 -12 9 -15 13
-4 13 -2 5 14 -12 23 -30 35 -30 21z"/>
<path d="M3028 3326 c-10 -7 -17 -15 -15 -17 1 -2 -2 0 -8 6 -5 5 -23 11 -40
12 -16 1 -22 -1 -12 -4 9 -2 17 -9 17 -14 0 -6 -4 -7 -10 -4 -5 3 -10 2 -10
-4 0 -6 -6 -8 -14 -5 -8 3 -17 1 -21 -5 -9 -16 -25 -13 -25 5 0 8 -4 12 -10 9
-15 -9 -12 -35 4 -35 7 0 19 -7 26 -15 7 -9 8 -15 2 -15 -5 0 -8 -9 -5 -20 4
-15 0 -20 -15 -20 -11 0 -27 7 -36 15 -17 17 -30 20 -21 5 3 -5 2 -10 -4 -10
-5 0 -12 6 -14 13 -3 6 -6 -1 -6 -16 -1 -27 0 -27 16 -11 11 11 18 13 21 5 6
-19 70 -14 75 7 4 13 5 11 6 -5 1 -14 -5 -23 -13 -23 -9 0 -12 -7 -9 -20 3
-11 0 -20 -6 -20 -6 0 -11 7 -11 16 0 9 -6 14 -12 12 -7 -3 -13 -10 -12 -16 1
-7 2 -21 3 -32 0 -11 8 -20 16 -20 8 0 15 -8 15 -18 0 -26 11 -34 27 -21 11
10 11 15 1 27 -11 13 -10 15 4 9 11 -4 19 0 23 13 3 10 16 31 28 46 25 33 49
94 36 94 -5 0 -9 5 -9 10 0 6 8 10 18 10 14 0 15 2 2 10 -12 7 -12 10 -1 10 7
0 11 6 8 14 -3 7 0 19 6 25 15 15 6 13 -15 -3z m-68 -73 c-11 -17 -11 -17 -6
0 3 10 6 24 7 30 0 9 2 9 5 0 3 -7 0 -20 -6 -30z m-20 13 c-7 -7 -13 -7 -20 0
-6 6 -3 10 10 10 13 0 16 -4 10 -10z m34 -52 c3 -8 2 -12 -4 -9 -6 3 -10 10
-10 16 0 14 7 11 14 -7z"/>
<path d="M3180 3317 c0 -9 4 -18 9 -21 5 -4 8 1 7 9 -3 21 -16 31 -16 12z"/>
<path d="M3770 3322 c0 -6 5 -14 10 -17 6 -4 7 -11 4 -17 -4 -7 -2 -8 5 -4 9
6 9 12 -1 24 -7 10 -14 19 -15 21 -2 2 -3 -1 -3 -7z"/>
<path d="M2607 3306 c-9 -10 -15 -22 -11 -27 7 -12 37 18 32 32 -3 8 -10 5
-21 -5z"/>
<path d="M2509 3296 c8 -10 8 -16 -1 -23 -16 -12 -48 -13 -48 -1 0 4 -5 8 -11
8 -5 0 -7 -6 -3 -12 6 -10 5 -10 -7 -1 -16 13 -52 18 -105 15 -27 -2 -30 -5
-32 -39 -3 -81 62 -203 108 -203 18 0 33 36 27 62 -2 7 -2 10 0 6 9 -15 23 -8
23 11 0 19 14 22 38 8 6 -5 12 -4 12 2 0 5 -4 13 -10 16 -16 10 -11 21 10 22
11 1 20 -3 20 -8 0 -6 4 -7 10 -4 6 3 7 -1 4 -9 -3 -9 -11 -13 -16 -10 -6 4
-5 -4 2 -16 6 -12 9 -31 7 -42 -3 -11 5 -39 18 -62 17 -30 21 -46 14 -53 -7
-7 -6 -20 4 -39 30 -58 82 -91 151 -96 29 -2 35 -7 44 -37 8 -26 8 -31 0 -23
-7 7 -19 12 -28 12 -9 -1 -4 -9 15 -23 17 -12 55 -45 87 -74 60 -55 106 -83
134 -83 16 0 16 -2 -2 -16 -10 -8 -14 -13 -7 -10 6 4 14 0 16 -6 4 -10 6 -9 6
1 1 11 4 11 16 1 8 -7 32 -18 52 -25 25 -9 37 -19 35 -29 -2 -9 7 -20 20 -25
13 -5 29 -16 36 -24 7 -8 32 -22 57 -32 47 -18 61 -45 23 -46 -13 0 9 -8 47
-18 39 -11 72 -17 75 -16 3 2 17 -6 30 -17 14 -11 19 -16 11 -12 -10 5 -8 -1
4 -17 10 -13 43 -35 74 -49 31 -13 75 -39 97 -57 26 -21 48 -31 58 -27 13 5
12 9 -10 26 -18 14 -24 28 -22 47 3 23 7 26 46 27 35 2 41 0 31 -12 -9 -11 -8
-14 5 -14 9 0 16 5 16 10 0 6 12 10 26 10 17 0 23 4 18 13 -4 6 2 4 13 -6 21
-18 21 -18 28 2 3 12 4 25 1 29 -9 16 -49 6 -57 -14 -7 -16 -8 -15 -8 7 -1 42
21 63 60 56 34 -6 34 -6 9 8 -24 13 -24 14 -4 15 40 0 49 -24 35 -94 -11 -55
-11 -68 3 -94 8 -16 13 -32 10 -35 -3 -3 6 -13 20 -22 26 -17 36 -45 16 -45
-5 0 -10 5 -10 10 0 6 -7 10 -16 10 -9 0 -12 5 -8 12 5 7 2 9 -9 5 -11 -4 -21
6 -37 37 -11 24 -32 48 -46 55 -14 6 -23 15 -19 20 3 6 -7 6 -26 1 -39 -11
-37 -9 -43 -43 -2 -14 -7 -31 -10 -35 -7 -11 37 -32 67 -32 23 0 87 -59 87
-79 0 -6 5 -11 10 -11 6 0 9 -6 8 -12 -2 -9 7 -12 26 -11 16 1 26 0 23 -4 -3
-3 4 -14 16 -24 17 -14 19 -21 9 -27 -25 -16 -4 -40 62 -71 5 -2 6 4 3 13 -4
10 -3 15 3 11 6 -3 10 -13 10 -21 0 -18 25 -46 34 -37 3 4 6 91 6 194 0 140
-3 189 -12 192 -10 4 -10 6 0 6 6 1 12 7 12 15 0 8 -6 17 -12 19 -10 4 -10 6
0 6 6 1 12 8 12 17 0 26 -23 10 -34 -23 -6 -18 -14 -34 -17 -37 -6 -6 -31 39
-44 79 l-7 20 -8 -20 c-14 -32 -10 -4 6 50 l14 50 -5 -42 c-6 -47 1 -56 15
-20 l9 22 0 -22 c1 -13 5 -23 10 -23 6 0 6 12 1 29 -7 24 -5 29 6 24 8 -3 14
-18 14 -33 0 -16 5 -32 12 -36 8 -5 9 -2 5 9 -3 10 -2 17 2 17 5 0 12 -6 14
-12 3 -7 6 42 6 110 1 69 -3 122 -8 122 -14 0 -42 -30 -36 -40 3 -4 -2 -10 -9
-13 -8 -3 -31 7 -52 24 -20 16 -42 29 -48 29 -24 0 -48 -27 -48 -53 0 -15 -4
-24 -9 -21 -5 3 -9 20 -9 39 0 39 29 66 88 86 20 6 40 17 44 22 4 7 12 6 24
-4 16 -13 17 -12 11 6 -7 19 -6 19 7 2 8 -10 20 -15 30 -11 24 9 23 112 -1
130 -17 13 -17 14 0 8 16 -6 18 -2 15 22 -3 31 -16 46 -31 37 -5 -3 -4 -9 3
-13 9 -6 8 -14 -5 -34 -9 -14 -22 -23 -27 -20 -6 4 -3 -5 7 -19 18 -27 3 -49
-18 -28 -9 9 -7 10 7 5 13 -5 17 -4 12 4 -4 7 -14 12 -21 12 -23 0 -85 33 -79
42 3 4 -1 5 -9 2 -8 -3 -25 11 -42 36 -15 22 -29 40 -30 40 -1 0 -1 -11 0 -24
3 -22 1 -23 -38 -14 -22 5 -44 11 -49 14 -4 3 -8 1 -8 -5 0 -6 12 -13 28 -16
43 -10 157 -54 178 -70 11 -8 -12 -3 -51 11 -88 33 -148 29 -182 -11 -29 -33
-29 -49 1 -88 29 -39 61 -101 48 -93 -6 3 -13 -1 -16 -10 -8 -22 -8 -26 4 -19
6 3 10 -3 10 -14 0 -11 5 -23 10 -26 6 -3 10 0 10 7 0 10 3 9 9 -2 6 -8 7 -18
5 -22 -5 -7 10 -12 29 -9 4 0 7 -4 7 -9 0 -19 -26 -10 -60 20 -40 35 -44 37
-30 9 10 -18 10 -19 -8 -10 -14 7 -19 7 -19 -4 0 -8 4 -12 8 -10 4 3 22 -2 40
-10 19 -8 28 -14 21 -15 -7 0 -10 -5 -6 -11 3 -6 15 -9 25 -6 11 3 17 1 13 -4
-3 -5 -15 -9 -27 -9 -37 0 -98 20 -92 31 4 5 -2 9 -12 9 -29 0 6 -28 57 -45
l45 -15 -39 5 c-22 2 -46 -1 -54 -7 -10 -9 -15 -9 -21 1 -6 9 -11 8 -21 -4 -7
-9 -27 -14 -49 -14 -34 2 -34 2 -6 6 17 3 36 9 43 15 15 13 16 68 1 68 -5 0
-8 -4 -5 -9 12 -19 -20 -18 -41 2 -26 24 -30 12 -7 -21 12 -18 19 -20 35 -12
21 12 26 1 7 -18 -36 -36 -94 3 -103 70 -7 48 8 86 44 116 20 16 23 42 5 42
-9 0 -12 5 -8 13 12 21 -31 -27 -50 -55 -11 -17 -17 -42 -15 -67 2 -22 0 -43
-4 -47 -7 -7 -9 8 -10 63 -1 12 -5 20 -9 17 -4 -3 -8 5 -8 18 0 18 -2 20 -10
8 -8 -12 -10 -12 -15 2 -4 10 0 27 9 40 22 31 20 36 -9 32 -14 -1 -32 4 -40
12 -15 16 -30 2 -20 -18 4 -7 -1 -4 -10 7 -12 16 -18 17 -24 7 -15 -24 -44 16
-37 51 3 16 6 39 7 51 1 19 2 18 9 -4 8 -24 8 -24 9 6 2 48 38 80 100 89 29 4
55 4 58 1 4 -3 15 2 26 11 19 17 19 17 13 -4 -6 -17 -3 -23 9 -23 13 0 15 7 9
38 -4 20 -10 44 -15 53 -5 9 -6 18 -4 21 2 2 -5 4 -15 5 -24 2 -25 -1 -3 -37
13 -22 14 -32 5 -43 -18 -21 -62 -10 -62 15 0 17 -3 18 -15 8 -10 -9 -15 -9
-15 -1 0 6 -7 11 -15 11 -8 0 -15 -6 -15 -12 0 -10 -2 -10 -8 0 -6 8 -13 1
-22 -23 -14 -35 -48 -62 -36 -28 6 17 5 17 -7 1 -8 -10 -18 -14 -23 -10 -4 4
-2 -2 6 -12 10 -13 10 -17 3 -12 -10 5 -14 -5 -15 -41 -4 -86 0 -107 21 -124
22 -18 27 -34 14 -42 -5 -2 -2 -2 5 -1 6 2 12 -2 12 -9 0 -7 7 -3 15 7 11 15
15 16 19 5 10 -32 2 -46 -26 -47 -19 0 -28 4 -26 11 2 7 -12 28 -31 47 -19 19
-31 29 -26 21 5 -10 4 -12 -4 -7 -6 4 -9 12 -6 17 4 5 1 17 -4 26 -10 17 -10
17 -11 1 0 -10 -5 -18 -11 -18 -5 0 -8 4 -4 9 3 5 -1 15 -8 23 -8 7 -12 19 -9
26 5 16 -10 16 -28 0 -12 -11 -12 -10 -2 4 7 9 9 18 5 21 -10 5 -44 -29 -36
-36 3 -3 -4 -3 -15 0 -30 7 -38 35 -9 31 35 -5 60 27 52 69 -4 21 -2 40 6 49
10 12 9 13 -5 8 -9 -3 -16 -11 -16 -16 0 -6 -7 -7 -16 -4 -14 5 -15 4 -4 -9
10 -12 10 -15 -2 -15 -8 0 -19 5 -25 11 -9 9 -10 7 -6 -10 3 -12 1 -21 -6 -21
-6 0 -8 -7 -4 -17 6 -15 5 -16 -9 -3 -14 13 -15 17 -3 26 8 6 12 13 9 16 -2 3
1 17 7 32 8 17 20 26 36 26 13 0 22 4 19 8 -2 4 10 6 29 4 26 -3 34 0 39 15 3
11 22 27 41 36 20 10 35 24 35 34 0 15 2 16 10 3 6 -9 10 -10 10 -3 0 6 -10
19 -22 29 l-23 16 22 -5 c13 -3 26 -1 29 4 3 5 10 7 15 4 5 -4 9 3 9 14 0 12
4 21 8 21 5 0 17 7 28 16 16 13 16 15 2 10 -10 -3 -18 -2 -18 3 0 4 -27 7 -60
5 -33 -1 -57 2 -54 7 3 5 0 9 -5 9 -6 0 -11 6 -11 13 0 6 -13 18 -30 25 -16 8
-30 19 -30 27 0 7 -8 19 -17 26 -14 12 -16 12 -11 -1 3 -8 11 -33 18 -55 6
-22 21 -57 31 -77 11 -21 15 -39 9 -43 -5 -3 -7 -12 -3 -20 3 -10 -1 -15 -12
-15 -9 0 -13 5 -10 10 9 15 -27 12 -47 -4 -23 -17 -24 -56 -2 -56 12 0 14 3 6
13 -9 10 -6 13 13 12 13 0 27 -4 32 -9 5 -5 1 -7 -8 -3 -11 3 -21 -3 -29 -18
l-12 -23 -23 20 c-13 11 -22 25 -21 31 7 39 19 57 39 58 53 3 60 5 65 18 4 13
3 13 -58 -5 -22 -6 -23 -5 -11 10 13 15 11 15 -15 1 -16 -8 -34 -27 -41 -42
-8 -18 -12 -22 -13 -10 0 9 -4 17 -10 17 -5 0 -6 8 -3 18 6 15 5 15 -12 -2
-26 -25 -37 -102 -15 -103 12 -1 15 8 13 40 l-2 42 9 -35 c4 -19 18 -42 29
-51 27 -22 26 -29 -3 -29 -31 0 -50 -24 -42 -55 5 -19 3 -23 -8 -19 -17 7 -27
41 -20 74 2 15 -1 11 -9 -9 -13 -34 -37 -54 -37 -31 0 6 -4 9 -9 6 -5 -3 -9 0
-8 7 1 28 -3 50 -9 45 -3 -3 -21 -2 -40 3 -41 12 -60 4 -43 -17 10 -12 8 -16
-9 -21 -12 -3 -22 -11 -22 -18 0 -8 -9 -10 -25 -7 -14 2 -25 9 -25 14 0 5 6 8
13 5 16 -6 47 10 47 24 0 6 -6 9 -13 6 -8 -3 -20 -1 -27 3 -9 6 0 12 28 21 23
6 39 15 37 19 -3 4 4 18 15 30 11 13 20 29 20 35 0 7 9 23 20 36 17 21 19 22
20 6 0 -10 -4 -16 -9 -13 -5 4 -7 -4 -3 -16 l5 -22 9 23 c5 15 14 21 23 17 19
-7 19 13 1 37 -17 22 -45 12 -70 -25 -15 -21 -46 -34 -46 -18 0 11 26 31 32
24 3 -2 8 3 12 12 5 13 1 15 -21 11 -26 -5 -26 -4 -8 9 19 14 19 14 -1 15 -10
1 -33 0 -50 -1 -21 -1 -33 4 -38 16 -8 21 -3 27 28 27 54 0 103 126 53 133
-15 2 -18 -2 -13 -21 12 -49 -23 -95 -61 -81 -15 6 -15 8 -3 16 12 8 9 10 -10
10 -14 0 -31 9 -38 20 -12 20 -42 28 -42 11 0 -5 12 -19 26 -30 15 -12 23 -21
18 -21 -5 0 -2 -5 6 -10 12 -8 11 -10 -8 -10 -14 0 -26 9 -34 25 -10 21 -29
30 -59 27 -4 -1 -17 10 -29 23 l-23 25 26 0 26 0 -23 25 c-24 26 -47 36 -27
11z m-99 -26 c14 -4 19 -8 13 -9 -7 -1 -14 0 -15 1 -2 1 -13 -4 -25 -11 -20
-10 -23 -9 -23 9 0 21 9 23 50 10z m377 -32 c-3 -7 -5 -2 -5 12 0 14 2 19 5
13 2 -7 2 -19 0 -25z m-437 15 c0 -5 -4 -14 -9 -21 -7 -11 -9 -11 -14 1 -3 8
-3 18 0 21 9 8 23 7 23 -1z m240 -110 c0 -15 -4 -22 -11 -18 -6 4 -8 9 -5 12
2 3 0 17 -5 31 -8 22 -8 23 6 12 8 -7 15 -23 15 -37z m-206 -7 c-8 -20 -20
-21 -28 0 -3 8 -2 12 3 9 5 -3 13 0 16 6 10 15 17 5 9 -15z m262 14 c15 -6 24
-13 21 -16 -8 -8 13 -64 24 -64 5 0 9 -5 9 -11 0 -6 -6 -9 -14 -6 -21 8 -36
-14 -36 -54 0 -40 23 -70 41 -52 7 7 4 17 -12 31 -18 18 -20 24 -10 36 7 8 9
21 5 28 -4 6 7 2 24 -11 27 -18 32 -29 31 -59 -1 -33 -2 -34 -9 -12 -5 15 -8
19 -9 8 -2 -26 -31 -49 -53 -42 -13 4 -18 2 -14 -4 3 -6 1 -14 -5 -18 -8 -4
-9 -3 -5 4 4 7 1 12 -10 12 -13 0 -14 3 -4 15 7 8 17 12 22 9 6 -4 6 1 0 13
-6 10 -9 33 -8 51 1 17 -3 33 -8 35 -7 2 -6 10 3 20 11 14 11 22 -3 51 -24 51
-23 52 20 36z m-46 -71 c0 -5 -4 -9 -10 -9 -5 0 -10 7 -10 16 0 8 5 12 10 9 6
-3 10 -10 10 -16z m156 -62 c17 -19 18 -25 7 -35 -10 -10 -13 -9 -13 7 0 11
-7 27 -16 35 -8 9 -11 16 -7 16 5 0 18 -10 29 -23z m708 -93 c3 -8 2 -12 -4
-9 -6 3 -10 10 -10 16 0 14 7 11 14 -7z m-804 -34 c-8 -5 -22 -9 -30 -9 -10 0
-8 3 5 9 27 12 43 12 25 0z m183 -6 c3 -3 3 -12 0 -20 -4 -10 -9 -11 -23 -2
-10 7 -16 16 -14 20 6 9 28 11 37 2z m48 -58 c13 -7 23 -18 21 -25 -1 -6 5
-25 13 -41 11 -21 12 -31 3 -36 -7 -4 -8 -3 -4 4 5 8 0 11 -15 9 -16 -1 -27 6
-36 23 -11 22 -13 23 -14 5 -1 -11 -1 -24 0 -28 1 -4 -8 -3 -19 3 -22 12 -27
22 -7 14 14 -5 15 -3 18 65 1 24 5 38 9 31 4 -6 18 -17 31 -24z m-108 9 c-3
-9 -8 -14 -10 -11 -3 3 -2 9 2 15 9 16 15 13 8 -4z m42 -25 c-4 -12 -9 -19
-12 -17 -3 3 -2 15 2 27 4 12 9 19 12 17 3 -3 2 -15 -2 -27z m105 20 c0 -5 -5
-10 -11 -10 -5 0 -7 5 -4 10 3 6 8 10 11 10 2 0 4 -4 4 -10z m30 -45 c20 -24
6 -28 -15 -5 -10 11 -13 20 -8 20 6 0 16 -7 23 -15z m779 -40 c46 4 46 4 7 -4
-22 -5 -47 -19 -57 -32 l-18 -24 6 24 c4 16 2 22 -5 18 -6 -4 -9 0 -7 10 2 10
4 20 4 23 1 2 6 -1 13 -8 6 -6 30 -9 57 -7z m-759 -5 c0 -16 -39 -50 -57 -50
-12 0 -7 7 15 20 17 11 32 24 32 30 0 5 2 10 5 10 3 0 5 -4 5 -10z m-79 -28
c-7 -2 -18 1 -23 6 -8 8 -4 9 13 5 13 -4 18 -8 10 -11z m752 -2 c3 -11 1 -18
-4 -14 -5 3 -9 12 -9 20 0 20 7 17 13 -6z m237 1 c36 -11 57 -20 48 -20 -10
-1 -18 -7 -18 -15 0 -8 -18 -18 -43 -24 -62 -16 -110 -52 -121 -90 -8 -28 -5
-38 15 -65 l23 -32 -24 16 c-35 23 -50 56 -50 115 0 66 25 101 78 107 l37 4
-41 1 c-26 1 -46 -3 -54 -13 -7 -8 -16 -13 -20 -10 -5 3 -11 -1 -13 -7 -4 -8
-6 -7 -6 4 -2 46 87 59 189 29z m-886 -14 c-3 -8 -12 -18 -20 -21 -11 -4 -10
0 3 18 20 26 27 28 17 3z m32 -1 c0 -13 -4 -22 -8 -19 -5 2 -8 -1 -8 -8 0 -7
-2 -10 -5 -7 -5 5 14 58 21 58 1 0 1 -11 0 -24z m30 -59 c-35 -35 -41 -19 -8
23 20 26 28 30 30 18 2 -9 -8 -27 -22 -41z m14 -22 c0 -8 -4 -15 -10 -15 -5 0
-7 7 -4 15 4 8 8 15 10 15 2 0 4 -7 4 -15z m277 -17 c-3 -7 -5 -2 -5 12 0 14
2 19 5 13 2 -7 2 -19 0 -25z m-67 -63 c-14 -16 -60 -21 -60 -6 0 6 15 12 33
14 17 2 34 5 36 5 2 1 -2 -5 -9 -13z m585 -2 c17 -17 35 -56 35 -76 0 -7 -9 7
-19 30 -19 41 -50 61 -72 47 -8 -4 -9 -3 -5 4 10 17 42 15 61 -5z m-580 -32
c3 -5 0 -13 -6 -17 -7 -4 -9 -3 -5 4 3 6 -3 12 -16 15 -23 4 -23 4 -1 6 12 0
24 -3 28 -8z m35 -5 c0 -2 -7 -9 -15 -16 -13 -11 -14 -10 -9 4 5 14 24 23 24
12z m630 -34 c0 -9 -4 -23 -9 -31 -6 -10 -9 -3 -8 22 1 34 17 43 17 9z m-616
-17 c-4 -8 -10 -12 -15 -9 -14 8 -10 24 6 24 9 0 12 -6 9 -15z m543 -42 c-3
-10 -5 -4 -5 12 0 17 2 24 5 18 2 -7 2 -21 0 -30z m-37 -40 l0 -38 -15 29
c-15 28 -13 46 6 46 5 0 9 -17 9 -37z m-200 23 c0 -3 -4 -8 -10 -11 -5 -3 -10
-1 -10 4 0 6 5 11 10 11 6 0 10 -2 10 -4z m-105 -27 c26 0 27 -1 10 -9 -11 -5
-16 -9 -11 -9 14 -1 -15 -31 -30 -31 -20 0 -56 39 -48 51 3 6 16 8 28 4 11 -4
35 -7 51 -6z m322 -51 c-3 -8 -6 -5 -6 6 -1 11 2 17 5 13 3 -3 4 -12 1 -19z
m-277 -9 c0 -5 -5 -7 -11 -3 -6 3 -15 1 -19 -5 -5 -9 -10 -8 -20 4 -11 13 -8
15 19 15 17 0 31 -5 31 -11z m65 1 c-3 -5 -15 -10 -25 -10 -10 0 -22 5 -25 10
-4 6 7 10 25 10 18 0 29 -4 25 -10z m-114 -27 c13 -15 12 -15 -8 -4 -24 12
-29 21 -14 21 5 0 15 -7 22 -17z m174 -68 c1 -11 -3 -23 -8 -26 -16 -11 -47 3
-47 20 0 23 6 28 33 27 15 -1 22 -7 22 -21z m147 -29 c-2 -4 7 -16 20 -26 13
-11 18 -19 12 -20 -5 0 -23 13 -38 29 -23 24 -25 29 -10 27 11 -2 18 -6 16
-10z m-149 -28 c-6 -11 -41 -10 -48 2 -3 5 7 8 24 7 16 -1 27 -5 24 -9z m222
-36 c-3 -3 -11 0 -18 7 -9 10 -8 11 6 5 10 -3 15 -9 12 -12z m22 -19 c-3 -10
-5 -4 -5 12 0 17 2 24 5 18 2 -7 2 -21 0 -30z m-47 7 c8 -5 12 -11 9 -14 -3
-3 -14 1 -25 9 -21 16 -8 20 16 5z m20 -130 c0 -5 -4 -10 -10 -10 -5 0 -10 5
-10 10 0 6 5 10 10 10 6 0 10 -4 10 -10z"/>
<path d="M2880 2774 c0 -13 18 -39 24 -34 2 3 -2 14 -10 24 -8 11 -14 16 -14
10z"/>
<path d="M3873 2673 c9 -2 23 -2 30 0 6 3 -1 5 -18 5 -16 0 -22 -2 -12 -5z"/>
<path d="M2731 3273 c7 -12 15 -20 18 -17 3 2 -3 12 -13 22 -17 16 -18 16 -5
-5z"/>
<path d="M2731 3213 c-10 -26 -10 -27 4 -9 8 11 15 23 15 28 0 15 -7 8 -19
-19z"/>
<path d="M2875 3220 c3 -5 8 -10 11 -10 2 0 4 5 4 10 0 6 -5 10 -11 10 -5 0
-7 -4 -4 -10z"/>
<path d="M3202 3199 c1 -12 9 -24 16 -25 7 -1 8 0 3 2 -6 3 -8 11 -5 19 3 7 0
16 -6 20 -8 5 -11 0 -8 -16z"/>
<path d="M3145 3188 c19 -31 32 -36 32 -13 0 8 -3 13 -5 10 -3 -3 -14 3 -25
12 -20 18 -20 18 -2 -9z"/>
<path d="M3856 3195 c4 -8 8 -15 10 -15 2 0 4 7 4 15 0 8 -4 15 -10 15 -5 0
-7 -7 -4 -15z"/>
<path d="M3527 3136 c-18 -14 -18 -16 -2 -40 10 -14 18 -26 19 -26 0 0 1 18 1
40 0 22 0 40 0 40 0 0 -8 -7 -18 -14z"/>
<path d="M3685 3110 c3 -5 14 -10 23 -10 15 0 15 2 2 10 -20 13 -33 13 -25 0z"/>
<path d="M3906 3045 c-11 -8 -15 -15 -10 -15 6 0 19 7 30 15 10 8 15 14 9 14
-5 0 -19 -6 -29 -14z"/>
<path d="M2817 2976 c-7 -17 1 -26 24 -26 9 0 19 -7 23 -15 3 -8 10 -15 16
-15 19 0 10 15 -24 42 -26 21 -35 24 -39 14z"/>
<path d="M3476 2977 c3 -10 9 -15 12 -12 3 3 0 11 -7 18 -10 9 -11 8 -5 -6z"/>
<path d="M3510 2973 c0 -17 4 -20 22 -15 16 4 18 7 8 10 -8 3 -18 10 -22 16
-5 6 -8 2 -8 -11z"/>
<path d="M3276 2964 c-4 -10 -1 -14 6 -12 15 5 23 28 10 28 -5 0 -13 -7 -16
-16z"/>
<path d="M3958 2934 c-13 -12 5 -50 24 -51 19 -2 19 -1 3 11 -10 7 -15 18 -11
24 6 11 -7 25 -16 16z"/>
<path d="M3360 2920 c0 -13 11 -13 30 0 12 8 11 10 -7 10 -13 0 -23 -4 -23
-10z"/>
<path d="M3565 2916 c-23 -17 -5 -68 27 -77 19 -5 28 -3 32 8 9 23 7 40 -3 24
-13 -21 -38 -6 -38 23 0 14 3 23 8 21 4 -3 10 -2 13 3 7 12 -22 11 -39 -2z"/>
<path d="M3887 2904 c-8 -9 1 -24 14 -24 6 0 8 4 5 9 -4 5 0 12 6 14 9 4 8 6
-3 6 -9 1 -19 -2 -22 -5z"/>
<path d="M3750 2891 c0 -6 4 -13 10 -16 6 -3 7 1 4 9 -7 18 -14 21 -14 7z"/>
<path d="M3192 2865 c-12 -14 -18 -25 -13 -25 5 0 16 11 25 25 9 14 15 25 13
25 -2 0 -13 -11 -25 -25z"/>
<path d="M3957 2853 c-3 -5 6 -8 19 -8 13 0 24 3 24 8 0 4 -9 7 -19 7 -11 0
-22 -3 -24 -7z"/>
<path d="M3212 2820 c0 -14 2 -19 5 -12 2 6 2 18 0 25 -3 6 -5 1 -5 -13z"/>
<path d="M3304 2756 c-7 -29 3 -49 18 -40 7 4 8 2 4 -4 -3 -6 3 -16 14 -22 13
-7 20 -7 20 0 0 5 -5 10 -11 10 -5 0 -8 4 -5 9 3 5 -1 14 -9 21 -9 7 -13 21
-10 31 4 11 2 19 -4 19 -6 0 -13 -11 -17 -24z"/>
<path d="M3356 2767 c3 -10 9 -15 12 -12 3 3 0 11 -7 18 -10 9 -11 8 -5 -6z"/>
<path d="M3425 2769 c-4 -6 -5 -12 -2 -15 2 -3 7 2 10 11 7 17 1 20 -8 4z"/>
<path d="M3280 2718 c0 -9 -2 -22 -3 -30 -2 -7 -2 -9 1 -5 2 4 10 3 18 -4 18
-15 17 -1 -1 31 -10 18 -14 20 -15 8z"/>
<path d="M3488 2712 c-4 -12 0 -26 8 -33 20 -17 23 -9 9 25 -11 26 -12 27 -17
8z"/>
<path d="M3458 2663 c7 -3 16 -2 19 1 4 3 -2 6 -13 5 -11 0 -14 -3 -6 -6z"/>
<path d="M3526 2625 c-3 -9 0 -15 9 -15 16 0 20 16 6 24 -5 3 -11 -1 -15 -9z"/>
<path d="M3421 2584 c0 -11 3 -14 6 -6 3 7 2 16 -1 19 -3 4 -6 -2 -5 -13z"/>
<path d="M3646 2587 c-18 -13 -18 -14 -1 -21 22 -8 44 9 29 24 -7 7 -16 6 -28
-3z"/>
<path d="M3150 2385 c-8 -9 -8 -15 -2 -15 12 0 26 19 19 26 -2 2 -10 -2 -17
-11z"/>
<path d="M3745 2330 c-8 -13 5 -13 25 0 13 8 13 10 -2 10 -9 0 -20 -4 -23 -10z"/>
<path d="M1220 2231 c-5 -11 -10 -29 -10 -40 0 -12 -7 -21 -16 -21 -8 0 -12
-4 -9 -10 3 -5 -4 -11 -17 -11 -13 -1 -30 -2 -40 -3 -9 -1 -20 -5 -25 -10 -4
-5 -3 -6 4 -2 7 4 21 2 30 -3 12 -7 13 -10 4 -11 -7 0 -11 -6 -7 -15 5 -13 -5
-19 -26 -16 -4 0 -5 -6 -2 -14 4 -8 10 -13 14 -10 10 6 31 -51 23 -59 -10 -10
-25 -7 -18 4 3 6 -1 10 -9 10 -10 0 -13 6 -9 17 5 12 3 14 -7 8 -10 -6 -12 -4
-7 8 3 9 2 19 -3 22 -15 9 -12 25 5 25 8 0 15 5 15 11 0 6 -7 8 -17 5 -9 -4
-20 -1 -25 6 -10 15 -4 -26 7 -55 4 -9 2 -24 -5 -32 -11 -14 -15 -13 -28 6 -8
12 -11 24 -6 28 5 3 10 15 11 26 1 17 0 17 -17 -5 -10 -13 -20 -38 -23 -55 -5
-33 10 -130 25 -158 7 -14 4 -22 -14 -37 -18 -15 -19 -19 -7 -20 22 0 54 -36
39 -45 -5 -3 -7 -11 -4 -17 5 -7 2 -8 -5 -3 -9 5 -12 2 -9 -11 1 -9 26 -31 55
-48 82 -49 83 -50 34 -93 -52 -45 -157 -103 -188 -103 -34 0 -53 49 -30 78 16
21 -5 33 -33 19 -20 -10 -27 -24 -34 -67 -17 -102 -15 -113 24 -131 54 -26 87
-114 55 -149 -13 -14 -13 -22 0 -64 28 -92 12 -236 -26 -236 -6 0 -7 -5 -3
-11 3 -6 1 -15 -7 -19 -23 -15 33 -83 91 -114 66 -35 94 -29 118 22 21 46 54
75 64 59 5 -7 8 -8 8 -2 0 6 17 12 37 13 20 2 42 7 48 12 12 10 29 72 44 165
19 110 19 130 4 163 -15 32 -15 34 11 61 24 25 27 36 25 82 -3 53 -25 123 -57
183 -9 17 -17 42 -19 55 -1 13 -11 32 -23 43 -11 10 -20 28 -20 40 0 39 22
142 47 218 25 74 25 74 8 147 -10 42 -14 85 -11 100 19 78 19 83 -3 83 -11 0
-25 -9 -31 -19z m-130 -201 c0 -5 -5 -10 -11 -10 -5 0 -7 5 -4 10 3 6 8 10 11
10 2 0 4 -4 4 -10z m-11 -29 c2 -1 -2 -8 -9 -16 -10 -12 -16 -13 -26 -4 -25
21 -10 30 35 20z m18 -47 c-3 -3 -12 -4 -19 -1 -8 3 -5 6 6 6 11 1 17 -2 13
-5z m-7 -174 c0 -11 -2 -20 -4 -20 -2 0 -6 9 -9 20 -3 11 -1 20 4 20 5 0 9 -9
9 -20z m40 -297 c0 -7 -7 -14 -15 -14 -8 -1 -21 -2 -27 -3 -7 -1 -18 5 -25 14
-11 13 -12 13 -13 -2 0 -9 -5 -20 -10 -23 -6 -4 -9 -1 -8 7 2 7 -3 12 -10 10
-8 -1 -11 2 -7 8 3 6 10 8 15 5 5 -3 11 -1 14 3 9 15 86 11 86 -5z m-150 -41
c0 -13 2 -14 9 -3 5 7 11 9 14 4 7 -11 -4 -27 -19 -30 -5 -1 -16 7 -23 19 -10
16 -10 18 0 12 9 -5 10 -2 6 10 -4 10 -3 15 3 11 6 -3 10 -14 10 -23z m66 -54
c3 -26 -13 -32 -25 -9 -15 27 -14 33 6 29 9 -2 17 -11 19 -20z m-61 2 c-3 -5
0 -10 7 -10 7 0 19 -9 26 -20 14 -23 7 -26 -14 -5 -15 14 -48 10 -39 -5 3 -5
-4 -6 -15 -3 -22 6 -18 23 6 23 8 0 13 3 13 8 -3 15 1 22 12 22 5 0 7 -4 4
-10z m105 -55 c0 -8 5 -15 12 -15 6 0 8 -3 5 -7 -4 -3 -16 3 -27 15 -17 18
-18 22 -5 22 8 0 15 -7 15 -15z m-50 -43 c0 -10 -6 -26 -13 -36 -12 -16 -13
-16 -13 3 0 12 4 21 8 21 4 0 8 7 8 15 0 8 2 15 5 15 3 0 5 -8 5 -18z m38 -21
c8 -5 7 -15 -3 -34 -7 -14 -15 -37 -17 -49 -2 -18 -9 -23 -35 -23 -29 0 -31 1
-16 18 9 9 21 17 28 17 20 0 41 48 27 62 -7 7 -12 19 -12 28 0 12 2 12 9 1 5
-7 14 -16 19 -20z"/>
<path d="M3627 2223 c-4 -3 -7 -11 -7 -17 0 -6 5 -5 12 2 6 6 9 14 7 17 -3 3
-9 2 -12 -2z"/>
<path d="M216 1934 c-5 -14 -4 -15 9 -4 17 14 19 20 6 20 -5 0 -12 -7 -15 -16z"/>
<path d="M257 1903 c-10 -9 -9 -23 1 -23 5 0 9 7 9 15 0 17 -1 18 -10 8z"/>
<path d="M3978 1813 c7 -3 16 -2 19 1 4 3 -2 6 -13 5 -11 0 -14 -3 -6 -6z"/>
<path d="M1005 1770 c-3 -5 -2 -10 4 -10 5 0 13 5 16 10 3 6 2 10 -4 10 -5 0
-13 -4 -16 -10z"/>
<path d="M327 1463 c-22 -21 2 -56 31 -46 17 7 15 40 -4 47 -19 7 -19 7 -27
-1z"/>
<path d="M13 1344 c-18 -19 -18 -435 -1 -452 10 -10 10 -17 0 -32 -9 -15 -10
-26 -2 -40 12 -23 13 -53 1 -46 -12 8 -11 -95 1 -118 7 -13 7 -21 -2 -26 -9
-5 -9 -9 -1 -14 8 -5 8 -13 1 -26 -7 -13 -7 -21 0 -25 13 -8 40 13 40 30 0 8
6 16 12 18 10 4 10 6 0 6 -7 1 -17 -10 -22 -24 -5 -14 -15 -25 -21 -25 -8 0
-8 4 0 14 7 8 11 20 10 28 -4 30 2 58 11 58 6 0 10 -7 8 -16 -2 -10 4 -19 12
-21 13 -4 13 -3 0 7 -12 9 -9 11 16 6 18 -3 37 0 44 7 10 9 11 9 6 0 -5 -9 0
-13 13 -13 11 0 23 -4 26 -10 4 -6 -1 -7 -12 -3 -16 6 -16 5 -4 -10 11 -14 11
-20 1 -32 -19 -23 -30 -18 -31 13 0 24 -1 25 -9 7 -5 -11 -9 -14 -9 -7 -1 6
-6 12 -11 12 -7 0 -7 -7 0 -20 9 -17 7 -26 -14 -51 -14 -17 -26 -35 -26 -40 0
-5 -4 -9 -10 -9 -5 0 -10 14 -10 30 0 17 -5 30 -10 30 -18 0 -23 -28 -11 -60
5 -17 6 -28 1 -25 -12 7 -12 -202 0 -225 7 -13 7 -21 0 -25 -6 -3 -10 -52 -10
-111 l0 -105 236 3 236 3 23 43 c25 46 56 78 87 88 11 3 17 8 15 11 -3 2 -15
0 -26 -7 -12 -6 -21 -8 -21 -6 0 3 15 13 33 23 32 16 199 29 195 15 -1 -4 3
-17 10 -30 8 -13 10 -32 6 -45 -15 -43 -13 -45 37 -49 43 -3 50 0 54 17 12 57
10 69 -15 82 l-25 13 33 0 c22 0 32 5 32 15 0 8 5 15 12 15 6 0 8 3 5 6 -4 4
-15 1 -24 -7 -15 -11 -15 -10 1 9 25 29 47 28 85 -4 17 -14 31 -21 31 -15 0
16 -60 51 -87 51 -12 0 -25 -5 -29 -11 -5 -8 -9 -7 -15 4 -6 10 -23 15 -52 14
-27 -1 -44 2 -44 10 0 6 7 9 15 5 11 -4 13 -1 7 8 -6 10 -4 12 9 7 10 -4 15
-3 11 3 -8 12 81 5 121 -10 16 -6 40 -21 53 -33 l24 -22 -14 23 c-19 30 -74
55 -136 60 -46 4 -60 0 -108 -29 -39 -23 -51 -36 -42 -42 8 -6 6 -7 -7 -3 -10
4 -26 1 -35 -6 -9 -7 -4 1 10 17 33 38 81 125 68 125 -5 0 -18 -9 -29 -20 -11
-11 -20 -15 -20 -10 0 6 -9 20 -20 32 -10 12 -18 24 -16 27 2 3 -7 7 -21 8
-14 0 -29 5 -33 10 -10 9 -18 52 -19 98 -1 21 -4 26 -10 16 -7 -11 -14 -9 -37
8 -24 17 -40 23 -83 30 -3 1 0 6 7 13 18 18 14 28 -10 28 -19 0 -20 2 -8 11
12 8 12 10 -5 8 -34 -2 -42 0 -42 16 0 8 4 12 8 9 16 -9 35 50 28 86 l-6 35
-2 -37 c-1 -43 -10 -47 -36 -18 -23 25 -36 25 -65 0 -13 -11 -26 -20 -30 -20
-15 0 -19 14 -7 28 9 13 9 14 0 8 -24 -14 -15 51 9 68 12 9 18 16 12 16 -18 0
-42 -33 -47 -65 l-4 -30 -2 30 c-2 51 23 75 78 75 31 0 53 -5 61 -15 13 -16
35 -10 24 6 -3 5 -10 7 -15 4 -5 -4 -9 -1 -9 4 0 6 -21 11 -47 12 -45 1 -46 1
-18 10 17 5 41 7 55 4 22 -5 22 -4 7 6 -11 6 -36 8 -60 4 -33 -5 -39 -4 -27 5
12 10 11 11 -8 7 -14 -3 -20 -1 -15 6 4 6 0 8 -10 4 -10 -3 -17 -3 -17 2 0 14
48 22 88 16 25 -4 32 -3 22 3 -8 5 -40 13 -72 16 -36 5 -58 13 -62 22 -3 9 -1
12 4 9 6 -3 10 1 10 10 0 9 5 13 10 10 6 -3 10 3 10 14 0 23 -16 36 -25 21 -5
-7 -12 -5 -22 7 -14 17 -14 17 -9 -1 5 -14 2 -17 -10 -12 -8 3 -20 6 -25 6 -5
0 -9 4 -9 10 0 5 7 7 15 4 8 -4 15 -2 16 2 0 5 2 17 4 27 2 9 -1 15 -5 12 -14
-8 -41 40 -34 59 3 9 1 16 -5 16 -6 0 -11 -3 -11 -8 0 -4 -10 -13 -21 -21
l-22 -13 22 31 c12 17 19 31 14 31 -4 0 -1 5 7 10 13 8 12 10 -2 10 -20 0 -22
8 -9 44 9 21 8 24 -10 21 -13 -3 -19 2 -19 13 0 15 -2 15 -11 2 -9 -13 -10
-12 -5 3 7 21 -22 57 -46 57 -10 0 -18 6 -18 14 0 24 20 29 40 11 10 -9 27
-15 37 -12 15 4 15 5 -3 6 -12 0 -27 7 -33 15 -19 22 -51 27 -52 8 0 -16 -1
-16 -7 -1 -6 14 -9 15 -19 3z m141 -299 c-4 -8 -1 -15 5 -15 6 0 11 -5 11 -11
0 -8 -5 -8 -15 1 -17 14 -20 40 -5 40 5 0 7 -7 4 -15z m43 -1 c-3 -3 -12 -4
-19 -1 -8 3 -5 6 6 6 11 1 17 -2 13 -5z m29 -79 c10 -8 15 -14 9 -14 -5 0 -19
6 -29 14 -11 8 -15 15 -10 15 6 0 19 -7 30 -15z m-152 -44 c9 -7 16 -20 16
-27 0 -21 14 -17 43 12 33 33 67 29 86 -10 10 -22 11 -31 3 -34 -7 -2 -12 -10
-12 -18 0 -13 -3 -13 -22 0 -28 20 -44 21 -28 1 9 -11 9 -15 1 -15 -7 0 -10
-4 -7 -9 3 -5 -3 -11 -14 -14 -12 -3 -18 -1 -14 5 4 6 -1 8 -15 3 -17 -5 -20
-3 -15 12 4 14 0 12 -16 -6 -21 -24 -22 -47 -4 -141 4 -23 3 -24 -8 -5 -6 11
-11 36 -11 55 1 30 0 32 -6 10 -6 -21 -8 -18 -14 24 -4 27 -7 77 -7 112 0 65
9 74 44 45z m156 9 c0 -5 -5 -10 -11 -10 -5 0 -7 5 -4 10 3 6 8 10 11 10 2 0
4 -4 4 -10z m-43 -160 c3 -11 9 -18 13 -15 4 3 15 -11 25 -31 16 -35 14 -87
-5 -99 -5 -3 -5 8 0 25 10 34 -3 75 -26 84 -21 8 -44 -4 -43 -23 0 -10 2 -11
6 -3 2 6 10 9 15 6 7 -4 8 -2 4 4 -4 7 -3 12 2 12 27 0 36 -100 11 -116 -5 -3
-6 9 -3 25 9 42 -2 67 -21 51 -20 -17 -36 -3 -33 30 1 20 6 26 17 22 9 -3 12
-1 8 6 -4 6 1 13 10 16 10 2 5 4 -12 3 -35 -2 -57 -15 -48 -30 3 -6 1 -7 -5
-3 -16 9 -5 31 21 44 35 17 58 14 64 -8z m-68 -82 c13 -20 12 -22 -1 -11 -8 7
-17 11 -20 8 -2 -3 -5 2 -5 10 0 21 10 19 26 -7z m289 -16 c4 -37 -7 -42 -26
-11 -12 18 -15 19 -25 6 -7 -9 -21 -18 -32 -20 -11 -2 -5 -3 12 -1 18 1 32 0
31 -4 -2 -12 14 -42 21 -38 3 2 7 -6 8 -17 1 -12 3 -38 4 -58 3 -32 6 -36 25
-33 12 2 27 -3 34 -11 7 -8 18 -15 26 -15 50 0 82 -49 68 -104 -8 -34 -31 -27
-47 16 -9 21 -21 38 -27 38 -9 0 -9 -4 -2 -12 8 -11 42 -111 42 -125 0 -2 -4
-2 -8 1 -5 3 -6 -8 -4 -25 2 -16 10 -29 18 -29 19 0 18 -4 -13 -51 -17 -26
-29 -36 -34 -28 -4 6 -11 9 -17 5 -9 -5 -26 28 -23 46 0 4 -7 4 -16 1 -13 -5
-15 -2 -10 12 6 15 5 16 -8 5 -12 -10 -15 -10 -15 4 0 9 7 27 15 40 16 24 37
119 25 111 -7 -5 -22 25 -35 73 -4 13 -9 22 -11 20 -2 -3 1 -20 7 -39 13 -45
19 -120 8 -113 -5 3 -9 0 -9 -7 0 -10 -3 -10 -12 -1 -9 9 -15 5 -24 -18 -7
-17 -18 -30 -24 -30 -13 0 -13 17 0 25 6 3 10 27 9 53 l0 47 -18 -70 c-10 -38
-24 -71 -30 -73 -6 -2 -8 -9 -5 -14 4 -6 2 -8 -4 -5 -7 5 -5 22 5 55 15 45 14
50 -7 99 -12 28 -35 64 -53 79 l-31 29 30 -40 c31 -41 54 -87 54 -107 0 -7
-13 8 -28 33 -34 53 -89 102 -105 92 -7 -4 -6 -8 4 -12 22 -9 54 -34 64 -51 5
-8 -4 -5 -19 8 -16 12 -40 21 -55 21 -26 -2 -26 -2 -2 -6 17 -3 20 -7 11 -13
-9 -5 -3 -10 18 -14 16 -4 37 -15 45 -24 19 -22 27 -67 15 -84 -8 -10 -9 -9
-5 3 5 16 -26 79 -39 79 -4 0 -1 -7 6 -15 14 -17 5 -35 -17 -35 -12 0 -13 3
-4 14 8 10 9 16 1 21 -5 3 -13 -1 -16 -10 -5 -11 -10 -13 -19 -5 -6 5 -15 7
-18 3 -4 -3 -7 -2 -7 4 0 6 10 13 22 16 12 4 19 9 16 12 -3 4 -16 2 -27 -5
-26 -13 -29 4 -3 19 10 6 12 11 4 11 -7 0 -27 -20 -44 -45 -19 -27 -36 -41
-41 -36 -11 11 1 53 14 46 12 -8 11 -1 -3 30 -10 21 -8 33 11 70 12 25 34 53
47 63 14 9 46 32 70 50 25 18 49 30 55 27 5 -4 8 -1 7 7 -2 7 25 27 62 46 36
18 67 38 69 43 8 23 36 2 39 -29z m-234 -6 c-3 -9 -10 -13 -15 -10 -5 3 -3 11
4 19 15 16 19 13 11 -9z m100 9 c-4 -8 -10 -15 -15 -15 -4 0 -6 7 -3 15 4 8
10 15 15 15 4 0 6 -7 3 -15z m210 -107 c-7 -10 -41 -10 -47 0 -3 4 8 7 23 7
16 1 26 -3 24 -7z m-57 -30 c-3 -8 -6 -5 -6 6 -1 11 2 17 5 13 3 -3 4 -12 1
-19z m131 -24 c12 -8 22 -20 22 -26 0 -6 -8 -4 -18 5 -20 19 -37 23 -27 7 3
-6 -1 -7 -10 -4 -8 4 -23 0 -32 -7 -14 -12 -14 -10 1 14 21 31 33 33 64 11z
m-521 -56 c-3 -8 -6 -5 -6 6 -1 11 2 17 5 13 3 -3 4 -12 1 -19z m635 -105 c10
-9 18 -29 17 -47 l0 -31 -12 35 c-9 26 -21 38 -47 47 l-35 12 29 0 c16 1 38
-6 48 -16z m-575 -30 c-3 -10 -5 -4 -5 12 0 17 2 24 5 18 2 -7 2 -21 0 -30z
m551 14 c6 -6 13 -26 17 -42 l6 -30 -16 25 c-13 21 -15 22 -10 4 3 -13 -1 -26
-10 -34 -14 -12 -15 -10 -10 12 4 15 2 29 -4 32 -7 5 -11 -2 -11 -17 0 -20
-42 -84 -77 -117 -11 -10 20 46 36 65 14 17 14 18 0 7 -19 -14 -29 -7 -29 21
0 14 5 18 20 14 17 -4 18 -2 9 14 -9 17 -6 21 20 30 17 6 31 15 31 20 0 13 16
11 28 -4z m-468 -98 c8 -13 7 -19 0 -19 -6 0 -8 -4 -5 -10 3 -5 1 -10 -5 -10
-6 0 -13 7 -16 15 -4 11 -11 12 -24 5 -13 -7 -20 -6 -24 6 -9 24 -6 42 4 19 8
-18 9 -17 9 8 1 19 -3 26 -11 21 -6 -4 -8 -3 -4 4 8 14 63 -13 76 -39z m-117
-37 c-15 -2 -20 -8 -17 -20 5 -16 5 -16 -5 0 -6 9 -8 23 -5 32 5 13 10 14 27
4 l22 -13 -22 -3z m21 -28 c3 -8 2 -12 -4 -9 -6 3 -10 10 -10 16 0 14 7 11 14
-7z m297 -81 c27 -16 46 -42 31 -44 -44 -5 -59 -3 -59 8 0 16 2 16 30 2 22
-10 22 -10 2 6 -14 12 -36 15 -77 13 -53 -3 -56 -2 -41 15 21 22 76 22 114 0z"/>
<path d="M52 858 c-7 -7 -12 -28 -11 -47 l1 -36 8 32 c4 18 13 40 20 48 15 18
-1 20 -18 3z"/>
<path d="M310 540 c8 -5 20 -10 25 -10 6 0 3 5 -5 10 -8 5 -19 10 -25 10 -5 0
-3 -5 5 -10z"/>
<path d="M430 481 c0 -5 7 -11 15 -14 8 -4 12 -15 10 -27 -2 -11 0 -18 6 -15
5 4 7 11 4 16 -4 5 -1 9 4 9 6 0 2 9 -9 20 -22 22 -30 25 -30 11z"/>
<path d="M93 469 c9 -6 15 -14 12 -20 -3 -5 1 -6 10 -3 14 6 14 8 -2 20 -10 7
-22 13 -28 13 -5 0 -2 -4 8 -10z"/>
<path d="M356 467 c3 -10 9 -15 12 -12 3 3 0 11 -7 18 -10 9 -11 8 -5 -6z"/>
<path d="M55 429 c-4 -6 -5 -12 -2 -15 2 -3 7 2 10 11 7 17 1 20 -8 4z"/>
<path d="M382 350 c0 -14 2 -19 5 -12 2 6 2 18 0 25 -3 6 -5 1 -5 -13z"/>
<path d="M453 204 c0 -8 6 -13 14 -10 7 3 13 1 13 -4 0 -6 5 -10 11 -10 17 0
5 22 -17 31 -15 5 -21 3 -21 -7z"/>
<path d="M1708 1275 c2 -25 7 -45 11 -45 3 0 6 20 6 45 0 25 -5 45 -10 45 -6
0 -9 -19 -7 -45z"/>
<path d="M1770 1310 c0 -5 7 -7 16 -3 14 5 16 0 12 -35 -2 -23 0 -42 4 -42 5
0 8 20 8 45 0 38 -3 45 -20 45 -11 0 -20 -4 -20 -10z"/>
<path d="M1999 1280 c-6 -48 -5 -54 8 -49 4 2 6 24 3 49 l-6 45 -5 -45z"/>
<path d="M1906 1293 c11 -33 27 -63 35 -63 4 0 0 18 -9 40 -17 39 -37 57 -26
23z"/>
<path d="M2137 1273 c22 -47 22 -48 28 -41 7 7 -26 78 -37 78 -4 0 0 -17 9
-37z"/>
<path d="M269 1264 c-10 -13 -10 -17 2 -25 22 -14 35 -10 14 4 -12 10 -14 16
-7 21 7 4 12 2 12 -4 0 -6 5 -8 11 -4 8 5 10 -1 7 -20 -5 -26 6 -37 15 -13 7
19 -11 57 -26 57 -8 0 -20 -7 -28 -16z"/>
<path d="M451 1267 c-8 -10 -7 -19 5 -33 15 -18 15 -18 5 2 -7 15 -7 24 1 32
7 7 9 12 6 12 -3 0 -11 -6 -17 -13z"/>
<path d="M1876 1255 c-9 -26 -7 -32 5 -12 6 10 9 21 6 23 -2 3 -7 -2 -11 -11z"/>
<path d="M2097 1256 c-4 -10 -5 -21 -2 -24 9 -9 17 6 13 25 -3 17 -4 17 -11
-1z"/>
<path d="M330 1160 c0 -5 5 -10 10 -10 6 0 10 5 10 10 0 6 -4 10 -10 10 -5 0
-10 -4 -10 -10z"/>
<path d="M324 926 c11 -9 29 -16 40 -15 17 1 16 2 -6 9 -14 4 -32 11 -40 15
-7 3 -4 -1 6 -9z"/>
<path d="M325 872 c28 -13 105 -22 105 -13 0 4 -6 8 -12 8 -7 0 -35 3 -63 7
-31 4 -43 3 -30 -2z"/>
<path d="M2725 811 c-19 -8 -19 -8 2 -19 29 -16 38 -15 24 1 -6 8 -8 17 -4 20
8 8 4 8 -22 -2z"/>
<path d="M2673 785 c0 -8 4 -12 9 -9 5 3 6 10 3 15 -9 13 -12 11 -12 -6z"/>
<path d="M474 761 c0 -11 4 -17 8 -15 4 3 8 12 8 20 0 8 -4 14 -8 14 -4 0 -8
-9 -8 -19z"/>
<path d="M365 743 c17 -3 37 -10 45 -16 13 -10 13 -10 1 6 -8 10 -25 16 -45
16 l-31 -2 30 -4z"/>
<path d="M2616 735 c-3 -8 -3 -15 0 -15 3 0 12 7 20 15 13 13 13 15 1 15 -8 0
-17 -7 -21 -15z"/>
<path d="M490 703 c0 -26 -8 -45 -27 -65 l-27 -28 31 11 c18 6 38 18 45 27 12
15 11 16 -4 3 -17 -12 -17 -11 -11 20 3 19 11 37 16 40 5 4 6 12 3 18 -14 22
-26 10 -26 -26z"/>
<path d="M330 719 c0 -5 5 -7 10 -4 6 3 10 8 10 11 0 2 -4 4 -10 4 -5 0 -10
-5 -10 -11z"/>
<path d="M526 695 c-9 -26 -7 -32 5 -12 6 10 9 21 6 23 -2 3 -7 -2 -11 -11z"/>
<path d="M2660 700 c0 -9 31 -30 44 -30 13 0 5 28 -10 34 -23 9 -34 7 -34 -4z"/>
<path d="M2741 657 c-12 -15 -5 -27 16 -27 7 0 13 9 13 20 0 23 -13 26 -29 7z"/>
<path d="M2706 643 c-11 -11 -6 -23 9 -23 8 0 15 4 15 9 0 13 -16 22 -24 14z"/>
<path d="M530 586 c0 -3 9 -10 20 -16 11 -6 20 -8 20 -6 0 3 -9 10 -20 16 -11
6 -20 8 -20 6z"/>
<path d="M770 460 c0 -5 5 -10 10 -10 6 0 10 5 10 10 0 6 -4 10 -10 10 -5 0
-10 -4 -10 -10z"/>
<path d="M3513 407 c0 -8 6 -14 14 -14 9 0 10 4 2 14 -6 7 -12 13 -14 13 -1 0
-2 -6 -2 -13z"/>
<path d="M3725 350 c-3 -5 -1 -10 4 -10 6 0 11 5 11 10 0 6 -2 10 -4 10 -3 0
-8 -4 -11 -10z"/>
<path d="M799 325 c-14 -8 -34 -27 -44 -42 -18 -28 -18 -28 2 -10 11 9 23 14
28 10 4 -5 5 -2 1 4 -4 8 5 20 26 33 37 23 27 27 -13 5z"/>
<path d="M3620 304 c14 -16 26 -31 28 -33 1 -3 6 0 11 5 5 5 -6 18 -27 33
l-37 23 25 -28z"/>
<path d="M1092 287 c-11 -13 -6 -57 7 -57 3 0 6 16 7 35 0 40 0 40 -14 22z"/>
<path d="M3660 262 c0 -5 11 -19 25 -32 14 -13 24 -31 23 -39 -2 -10 5 -16 22
-16 14 -1 24 -6 23 -13 -2 -6 3 -9 11 -6 8 3 24 -8 37 -28 31 -42 56 -68 69
-68 5 0 9 -5 7 -12 -1 -7 4 -13 11 -14 6 -1 15 -2 18 -3 4 0 0 -9 -7 -19 -11
-13 -9 -13 9 2 19 17 22 17 16 3 -3 -10 -1 -17 5 -17 6 0 11 9 11 20 0 14 -6
20 -16 18 -10 -2 -19 3 -22 11 -3 10 0 11 9 5 12 -7 12 -5 0 9 -7 9 -17 15
-21 12 -13 -8 -40 6 -33 18 3 5 2 7 -4 4 -11 -7 -37 39 -36 65 0 10 -4 15 -8
12 -5 -3 -7 -10 -4 -15 10 -16 -4 -10 -24 10 -11 11 -17 22 -14 24 2 3 -12 13
-32 23 -22 10 -34 22 -31 30 3 8 0 11 -10 7 -7 -3 -14 0 -14 6 0 6 -4 11 -10
11 -5 0 -10 -4 -10 -8z m100 -66 c0 -2 -7 -7 -16 -10 -8 -3 -12 -2 -9 4 6 10
25 14 25 6z"/>
<path d="M3615 250 c3 -5 8 -10 11 -10 2 0 4 5 4 10 0 6 -5 10 -11 10 -5 0 -7
-4 -4 -10z"/>
<path d="M1094 188 c21 -30 20 -61 -2 -81 -32 -29 -45 -21 -38 21 l6 37 -14
-30 -14 -30 -1 33 c-1 18 -5 31 -10 28 -4 -3 -16 3 -26 14 -10 11 -28 20 -39
19 -20 0 -20 -1 2 -9 23 -10 29 -25 12 -35 -18 -11 -10 -25 15 -25 28 0 32
-14 10 -37 -9 -9 -12 -20 -7 -27 4 -6 8 -23 7 -37 -1 -24 1 -26 23 -18 30 11
35 11 27 -1 -3 -6 0 -10 8 -10 19 0 31 31 17 40 -7 4 1 20 21 41 37 39 44 80
19 109 -24 27 -35 25 -16 -2z"/>
<path d="M3653 203 c9 -2 25 -2 35 0 9 3 1 5 -18 5 -19 0 -27 -2 -17 -5z"/>
<path d="M3810 206 c0 -2 7 -7 16 -10 8 -3 12 -2 9 4 -6 10 -25 14 -25 6z"/>
<path d="M1036 187 c3 -10 9 -15 12 -12 3 3 0 11 -7 18 -10 9 -11 8 -5 -6z"/>
<path d="M3980 190 c-13 -9 -13 -10 0 -10 12 -1 11 -3 -2 -11 -10 -5 -18 -16
-18 -23 0 -8 -6 -16 -12 -19 -16 -6 -15 -83 1 -79 7 1 9 -7 5 -23 -4 -15 -2
-25 5 -25 6 0 12 20 12 48 1 29 4 36 6 20 8 -49 21 -30 21 29 0 32 -2 52 -5
46 -2 -7 -9 -13 -14 -13 -15 0 -10 22 7 35 21 15 15 38 -6 25z"/>
<path d="M3945 180 c-3 -5 -1 -10 4 -10 6 0 11 5 11 10 0 6 -2 10 -4 10 -3 0
-8 -4 -11 -10z"/>
<path d="M3725 150 c-3 -5 -1 -10 4 -10 6 0 11 5 11 10 0 6 -2 10 -4 10 -3 0
-8 -4 -11 -10z"/>
<path d="M638 143 c6 -2 18 -2 25 0 6 3 1 5 -13 5 -14 0 -19 -2 -12 -5z"/>
<path d="M3928 143 c7 -3 16 -2 19 1 4 3 -2 6 -13 5 -11 0 -14 -3 -6 -6z"/>
<path d="M710 122 c0 -4 7 -16 15 -26 8 -11 15 -36 14 -55 0 -20 -3 -30 -6
-22 -5 11 -7 11 -15 0 -7 -10 -8 -6 -5 13 2 15 0 25 -5 22 -4 -3 -19 3 -33 14
-21 17 -31 18 -72 10 -27 -5 -54 -17 -60 -26 -7 -9 -13 -12 -13 -7 0 4 -9 -3
-21 -16 l-21 -24 41 -3 c27 -2 47 2 57 12 20 20 33 20 56 -1 20 -18 25 -4 6
16 -11 10 -10 11 4 6 9 -4 19 -14 22 -23 2 -10 4 -6 3 8 -1 14 -8 25 -14 25
-16 0 -18 18 -4 23 6 2 18 -12 26 -32 12 -27 21 -36 40 -36 13 0 27 4 30 10
11 18 14 51 4 45 -5 -4 -9 5 -9 19 0 14 -5 26 -11 26 -5 0 -8 4 -5 9 3 5 -1
11 -9 15 -8 3 -15 2 -15 -2z m-76 -68 c5 -13 1 -15 -21 -11 -16 3 -35 0 -43
-6 -9 -7 -5 -2 8 11 27 26 47 28 56 6z"/>
<path d="M608 103 c7 -3 16 -2 19 1 4 3 -2 6 -13 5 -11 0 -14 -3 -6 -6z"/>
<path d="M1181 86 c2 -2 15 -9 29 -15 24 -11 24 -11 6 3 -16 13 -49 24 -35 12z"/>
<path d="M3696 27 c-16 -12 -16 -13 2 -13 10 0 19 6 19 13 0 7 -1 13 -2 13 -1
0 -9 -6 -19 -13z"/>
<path d="M875 21 c-6 -5 -19 -11 -30 -14 -11 -3 1 -4 27 -3 27 0 46 5 45 11
-5 14 -30 18 -42 6z"/>
<path d="M3733 15 c0 -8 4 -15 9 -15 4 0 8 4 8 9 0 6 -4 12 -8 15 -5 3 -9 -1
-9 -9z"/>
<path d="M3805 14 c-18 -14 -18 -14 2 -14 23 0 39 15 26 23 -5 3 -17 -1 -28
-9z"/>
<path d="M1525 10 c3 -5 8 -10 11 -10 2 0 4 5 4 10 0 6 -5 10 -11 10 -5 0 -7
-4 -4 -10z"/>
<path d="M608 3 c7 -3 16 -2 19 1 4 3 -2 6 -13 5 -11 0 -14 -3 -6 -6z"/>
</g>
</svg>
